<?xml version="1.0" standalone="no"?>
<!DOCTYPE svg PUBLIC "-//W3C//DTD SVG 1.1//EN" "http://www.w3.org/Graphics/SVG/1.1/DTD/svg11.dtd" >
<svg xmlns="http://www.w3.org/2000/svg">
<metadata></metadata>
<defs>
<font id="3d_let_brkregular" horiz-adv-x="1366" >
<font-face units-per-em="2048" ascent="1638" descent="-410" />
<missing-glyph horiz-adv-x="1024" />
<glyph unicode="&#xd;" horiz-adv-x="2048" />
<glyph unicode=" "  horiz-adv-x="1024" />
<glyph unicode="&#x09;" horiz-adv-x="1024" />
<glyph unicode="&#xa0;" horiz-adv-x="1024" />
<glyph unicode="!" d="M39 455l168 -82h6h6t4 4v291q0 4 -4 4h-6h-6l-74 -35v252l80 41l176 -88v-559l184 -97v-157l-534 266v160zM668 221v-160l-68 -32v157zM694 221l68 -35v-157l-68 32v160zM971 281v294q0 4 -8 5q-6 0 -11 -5l-71 -106v238l90 133l168 84v-547q0 -4 4 -4h6h6l168 82v-160 l-535 -266v157zM432 291l156 78l80 -41v-78l-80 -41l-156 78v4zM694 328l80 41l156 -78v-4l-156 -78l-80 41v78zM573 924v-535l-159 -80v533zM788 455l78 -37h2h2q4 0 9 4l69 104v-217l-160 80v66zM57 477l62 31h82v-105l-144 70v4zM1245 508l60 -31v-4l-144 -70v105h84z M694 782l162 -80v-253l-162 81v252zM92 522l-53 -26v53zM668 688v-158l-68 -34v159zM1323 549v-53l-53 26zM57 571l144 72v-108h-76l-68 32v4zM1305 571v-4l-68 -32h-76v108zM668 795v-78l-68 -33v145zM780 928l158 -80l4 -4v-2v-2l-78 -115l-164 82zM1083 991l146 72v-252 l-68 -35v174zM246 946l155 78l154 -78v-4l-154 -78l-155 78v4zM807 946l156 78l155 -78v-4l-155 -78l-156 78v4zM414 1122l174 88l80 -41v-251l-254 126v78zM387 1122v-78l-160 -79v239zM954 1120l66 -98l-57 27l-175 -84v239zM1053 1016q-4 6 -13.5 20.5t-20.5 30.5 t-20.5 30.5t-11.5 20.5q-2 0 -4 6q0 4 4 4l156 80q8 -8 15 -20t18.5 -27.5t22.5 -33t20 -27.5q0 -2 4 -8v-2v-3l-158 -77h-2h-2q-2 0 -4 3t-4 3zM246 1227l155 78l154 -78v-4l-154 -78l-155 78v4zM807 1227l156 78l155 -78v-4l-155 -78l-156 78v4z" />
<glyph unicode="#" d="M692 141v80l70 -35v-157l-146 71zM1159 375v106q0 4 -4 4h-6h-6l-168 -82v158l184 94v107q0 4 -4 4h-6h-6l-355 -176v160l455 227l80 -41v-178l-86 -131q-4 -4 -4 -11q0 -6 8 -12l82 -43v-178l-88 -131l-447 -223v157zM39 455l356 -176h4h7q4 0 4 4v106l-183 94v160 l168 -84h4h7q4 0 4 4v107l-371 188v158l448 -223l86 -131v-179l-81 -43q-8 -6 -9 -12q0 -2 4 -10l86 -131v-178l-79 -41l-455 227v160zM762 360v-63l-92 -49v-92l-70 -35v160zM786 283v90l82 41l95 -43l92 43l63 -31v-2l-344 -172l-65 33zM512 424l166 82l76 -115v-2v-2 l-4 -4l-158 -78zM57 477l62 31l268 -133v-66l-330 164v4zM788 561l80 41l80 -41v-158l-160 80v78zM1137 455v-52l-54 25zM201 561v-65l-72 34h-18l-72 -34v147zM670 690v-80l78 -41l-148 -73v159zM1055 696l63 -32v-2l-155 -78l-66 32zM47 668q0 4 4 8q2 6 12.5 20.5 t20.5 29.5t20.5 29.5t14.5 20.5q0 2 6 8h2h2l150 -75l-76 -39v-80l-152 74l-4 4v0zM246 664l61 32l80 -41v-65l-141 72v2zM692 717l-67 100l137 -67v-160l-70 33v94zM512 799l70 35l8 -9q2 -2 13 -19.5t27.5 -42t26.5 -38.5q0 -4 5 -8v-2v-2l-70 -33zM1137 735v-51l-54 25z M618 852l437 217l159 -78l-440 -221l-156 78v4zM57 1038l156 78l440 -219l-159 -80l-437 217v4zM680 924q-4 6 -13.5 20t-20.5 29.5t-20.5 30t-13.5 20.5q-4 4 -4 6t1 3t3 1l80 43v174l336 -168l-160 -79l-88 43h-4h-8q-4 0 -4 -5v-90l-74 -37h-2q-2 0 -5 3.5t-3 5.5z M840 991l-52 -26v51zM1182 1038l141 72v-145l-141 69v4zM668 1251v-159l-174 -88l-158 79zM868 1350l437 -217v-5l-156 -77l-440 221zM129 1159l53 -26v-5l-119 -59l56 82q0 2 3 4t3 4h2h2zM588 1397l155 -78v-2l-436 -219l-160 80z" />
<glyph unicode="$" d="M412 389l-373 189v438l164 -80v-281l192 -96h4h7q6 0 6 4v266l161 -79v-721l-161 82v278zM670 784v-454l92 -49v-172l-162 -80v721zM975 375l162 80v-240l-162 80v80zM1143 485l-355 -176v441l162 79v-266q0 -4 4 -4h9h4l194 96v281l162 80v-721l-162 -80q0 266 -2 268 t-4 2h-6h-6zM39 549l162 -80v-160l-162 80v160zM369 383v-2l-142 -72v146zM694 782l68 -32v-441l-68 33v440zM246 664l141 71v-145l-141 72v2zM1118 664v-2l-143 -72v145zM387 1016v-252l-160 -80v252zM975 1016l162 -80v-252l-162 80v252zM432 852l156 78l80 -41v-78 l-80 -41l-156 78v4zM694 889l80 41l156 -78v-4l-156 -78l-80 41v78zM555 946v-4l-141 -72v146zM807 946l141 70v-146l-141 72v4zM600 1217l68 34v-333l-68 32v267zM762 1217v-267l-68 -32v333zM57 1038l62 31h190l60 -31v-4l-156 -76l-156 76v4zM993 1038l60 31h192l60 -31 v-4l-156 -76l-156 76v4zM414 1296l159 -79v-252l-159 79v252zM948 1296v-252l-160 -79v252zM92 1083l-53 -26v53zM387 1110v-53l-51 26zM1028 1083l-53 -26v53zM1323 1110v-53l-53 26zM57 1133l156 77l156 -77v-5l-68 -32h-176l-68 32v5zM993 1133l156 77l156 -77v-5 l-68 -32h-176l-68 32v5zM432 1319l156 78l80 -39v-80l-80 -39l-156 78v2zM694 1358l80 39l156 -78v-2l-156 -78l-80 39v80z" />
<glyph unicode="%" d="M692 141v80l70 -35v-157l-146 71zM1159 375v106q0 4 -4 4h-6h-6l-275 -135l-80 39v361l535 266v-158l-371 -188v-107q0 -4 4 -4h7h4l276 137l80 -41v-272l-88 -131l-447 -223v157zM39 455l356 -176h4h7q4 0 4 4v106l-281 143l-90 134v350l534 -266v-160l-354 176h-6 q-8 0 -8 -4v-107l282 -143l86 -131v-272l-79 -41l-455 227v160zM682 416l80 -41v-78l-92 -49v-92l-70 -35v254zM786 283v77l82 -36l187 90l63 -31v-2l-344 -172l-65 33zM57 477l62 31l268 -133v-66l-330 164v4zM512 518l70 35l8 -8q2 -2 13 -19.5t27.5 -42t26.5 -39.5 q0 -4 5 -8v-2v-2l-70 -33zM612 555q-2 2 -3 5t0 5t3 2l80 41v176l70 -34v-347l-72 35zM1137 455v-52l-54 25zM246 664l61 32l248 -125v-4l-61 -30l-248 125v2zM668 782v-159l-68 -33v160zM1149 741l65 -32l-239 -119v65zM279 709l-52 -25v51zM1182 758l141 71v-65l-80 -41 l-61 31v4zM57 1038l62 31h190l359 -180v-78l-80 -41l-531 264v4zM694 889l359 180h192l60 -31v-4l-531 -264l-80 41v78zM598 1042q0 4 -4 5h-6h-6l-88 -43l-158 79l334 168v-174l75 -41l-75 -39v-82l-72 37v90zM743 946v-4l-49 -24v51zM774 1024l66 -33l-66 -33l-65 33z M573 1016v-51l-51 26zM694 1251l334 -168l-160 -79l-174 88v159zM92 1083l-53 -26v53zM1323 1110v-53l-53 26zM57 1133l531 264l80 -39v-80l-367 -182h-176l-68 32v5zM694 1358l80 39l531 -264v-5l-68 -32h-176l-367 182v80z" />
<glyph unicode="&#x26;" d="M410 653v6q0 10 -4 13l-367 186v158l534 -266v-183l-178 -448l-166 82zM911 623l219 110l-174 -608l-4 -4h-2h-2l-157 80zM594 549l4 8t6 6l78 39l47 -24l-149 -373l-152 -76v8zM1159 748v6q0 12 -10 12h-6l-355 -176v160l535 266v-168l-184 -643l-152 -78v14zM102 784 q0 2 -1 6.5t-3 4.5v2v2l152 -76q82 -201 80 -205t-2 -6q-4 -8 -11.5 -29.5t-11.5 -27.5q0 -2 -2 -4t-2 -5h-2h-2l-74 39zM780 559l99 47v-8l-39 -131l-4 -8q-4 2 -21.5 10t-21.5 12q-8 0 -9 8l-20 70h16zM287 707l96 -50v-2v-2q-2 -10 -8 -25.5t-12.5 -30.5t-11.5 -26.5 t-7 -11.5h-2q-4 8 -11 26.5t-15.5 40t-15.5 40t-9 24.5q-4 4 -4 12v3v2zM668 782v-159l-68 -33v160zM694 782l68 -32v-160l-68 33v159zM57 1038l62 31h190l359 -180v-78l-80 -41l-531 264v4zM694 889l359 180h192l60 -31v-4l-531 -264l-80 41v78zM692 1077v174l336 -168 l-160 -79l-88 43h-6q-8 0 -8 -11q0 -18 7 -34.5t7 -34.5v-6l-98 -50h-2q-2 2 -8 4.5t-7 3.5l-2 2t-1 3l-35 118zM840 991q-4 -4 -14.5 -9t-14.5 -7h-2q-2 0 -4 3t-2 5q-2 2 -4 12.5t-4 14.5v2zM668 1251v-159l-174 -88l-158 79zM92 1083l-53 -26v53zM1323 1110v-53l-53 26z M57 1133l531 264l80 -39v-80l-367 -182h-176l-68 32v5zM694 1358l80 39l531 -264v-5l-68 -32h-176l-367 182v80z" />
<glyph unicode="(" d="M412 389l-283 143l-90 134v270l80 41l454 -227v-721l-161 82v278zM731 815h4q0 -8 -4 -8q-2 -4 -10 -16.5t-17.5 -26.5t-17.5 -27.5t-10 -15.5t-4 -8v-291l90 -47v-266l-162 -80v721zM975 375l162 80v-240l-162 80v80zM1143 485l-275 -135l-80 39v270l91 136l444 221 v-721l-162 -80q0 266 -2 268t-4 2h-6h-6zM39 621l74 -107l88 -45v-160l-162 80v232zM369 383v-2l-142 -72v146zM694 688l68 -33v-252l-68 33v252zM395 559h4h7q4 0 4 4v107l-191 96h-6q-8 0 -8 -4v-107zM952 563q0 -4 4 -4h7h4l192 96v107q0 4 -4 4h-6h-6l-191 -96v-107z M246 664l61 32l80 -41v-65l-141 72v2zM1055 696l63 -32v-2l-143 -72v65zM780 834l68 -35v-4l-4 -7q-6 -10 -17.5 -27.5t-22.5 -33.5t-28 -41l-6 -6l-70 35zM279 709l-52 -25v51zM1137 735v-51l-54 25zM307 1069l436 -217v-4l-155 -78l-441 221zM1149 1116l156 -78v-4 l-437 -217l-159 80zM598 1042q0 4 -4 5h-6h-6l-88 -43l-158 79l332 168v-333l-70 34v90zM1028 1083l-160 -79l-88 43h-4h-8q-4 0 -4 -5v-90l-70 -34v333zM182 1038v-4l-143 -69v145zM573 1016v-51l-51 26zM840 991l-52 -26v51zM57 1133l437 217l159 -78l-440 -221l-156 77v5 zM1182 1133l51 26h8q2 -2 10.5 -15.5t21.5 -32.5t19 -32q2 0 4 -6h-4l-110 55v5zM618 1319l156 78l440 -219l-159 -80l-437 219v2z" />
<glyph unicode=")" d="M39 385v551l80 41l368 -184l86 -131v-553l-79 -41l-365 184zM788 659l91 136l364 182l80 -41v-553l-88 -131l-367 -184l-80 41v550zM668 688v-532l-68 -35v534zM694 688l68 -33v-534l-68 35v532zM395 279h4h7q4 0 4 4v387l-191 96h-6q-8 0 -8 -4v-387zM952 283q0 -4 4 -4 h7h4l192 96v387q0 4 -4 4h-6h-6l-191 -96v-387zM246 383l141 72v-146l-141 72v2zM1118 383v-2l-143 -72v146zM387 655v-172l-160 -80v332zM975 655l162 80v-332l-162 80v172zM512 799l156 78v-160l-76 -37zM694 877l154 -78v-4l-4 -7q-6 -10 -17.5 -27.5t-22.5 -33.5 t-28 -41l-6 -6l-76 37v160zM307 1069l346 -172l-159 -80l-347 174zM1055 1069l159 -78l-346 -174l-159 80zM598 1042q0 4 -4 5h-6h-6l-88 -43l-158 79l332 168v-333l-70 34v90zM1028 1083l-160 -79l-88 43h-4h-8q-4 0 -4 -5v-90l-70 -34v333zM92 991l-53 -26v51zM573 1016 v-51l-51 26zM840 991l-52 -26v51zM1323 1016v-51l-53 26zM47 1042l1 4q1 3 3 5q2 6 12.5 20t20.5 29.5t20.5 30t14.5 20.5q0 2 3 4t3 4h2h2l150 -76l-160 -79l-68 34l-4 4v0zM1239 1161l76 -114v-3v-2l-2 -4l-70 -34l-160 79zM494 1350l159 -78l-346 -174l-160 80zM868 1350 l346 -172l-159 -80l-346 174z" />
<glyph unicode="*" d="M39 385v176l90 47v15l-90 137v176l80 41l368 -184l86 -131v-179l-81 -43q-8 -6 -9 -12q0 -2 4 -10l86 -131v-178l-79 -41l-365 184zM788 285l91 137v4q0 8 -9 14l-82 43v176l91 136l364 182l80 -41v-178l-86 -131q-4 -4 -4 -11q0 -6 8 -12l82 -43v-178l-88 -131 l-367 -184l-80 41v176zM668 315v-159l-68 -35v160zM694 315l68 -34v-160l-68 35v159zM395 279h4h7q4 0 4 4v106l-191 96h-6q-8 0 -8 -4v-106zM952 283q0 -4 4 -4h7h4l192 96v106q0 4 -4 4h-6h-6l-191 -96v-106zM512 424l156 78v-160l-76 -37zM694 502l154 -76v-2v-2 q0 -2 -2 -4t-2 -4q-6 -10 -17.5 -27.5t-22.5 -34t-28 -39.5l-6 -8l-76 37v160zM246 383l61 33l80 -41v-66l-141 72v2zM1055 416l63 -33v-2l-143 -72v66zM279 428l-52 -25v52zM1137 455v-52l-54 25zM668 688v-158l-68 -34v159zM694 688l68 -33v-159l-68 34v158zM395 559h4h7 q4 0 4 4v107l-191 96h-6q-8 0 -8 -4v-107zM952 563q0 -4 4 -4h7h4l192 96v107q0 4 -4 4h-6h-6l-191 -96v-107zM92 616l-53 -26v53zM246 664l61 32l80 -41v-65l-141 72v2zM1055 696l63 -32v-2l-143 -72v65zM1323 643v-53l-53 26zM47 668q0 4 4 8q0 2 6 10l23 -33v-4l-29 15 l-4 4v0zM1309 684q0 -2 3 -6t3 -6v-2v-2q-4 -6 -13.5 -10.5t-17.5 -4.5l2 4q0 2 6 10.5t8 12.5l5 4h2h2zM512 799l156 78v-160l-76 -37zM694 877l154 -78v-4l-4 -7q-6 -10 -17.5 -27.5t-22.5 -33.5t-28 -41l-6 -6l-76 37v160zM279 709l-52 -25v51zM1137 735v-51l-54 25z M307 1069l346 -172l-159 -80l-347 174zM1055 1069l159 -78l-346 -174l-159 80zM598 1042q0 4 -4 5h-6h-6l-88 -43l-158 79l332 168v-333l-70 34v90zM1028 1083l-160 -79l-88 43h-4h-8q-4 0 -4 -5v-90l-70 -34v333zM92 991l-53 -26v51zM573 1016v-51l-51 26zM840 991l-52 -26 v51zM1323 1016v-51l-53 26zM47 1042l1 4q1 3 3 5q2 6 12.5 20t20.5 29.5t20.5 30t14.5 20.5q0 2 3 4t3 4h2h2l150 -76l-160 -79l-68 34l-4 4v0zM1239 1161l76 -114v-3v-2l-2 -4l-70 -34l-160 79zM494 1350l159 -78l-346 -174l-160 80zM868 1350l346 -172l-159 -80l-346 174z " />
<glyph unicode="0" horiz-adv-x="1374" d="M20 377v665l97 144l372 186h19l178 -86l176 86h21l372 -186l95 -142v-669l-95 -142l-383 -190l-186 90l-188 -90l-381 190zM498 68l80 41v553l-89 131l-366 184l-80 -41v-551l90 -133zM872 68l367 184l88 133v551l-80 41l-364 -182l-90 -136v-550zM604 123l68 33v534 l-68 -35v-532zM766 123v532l-68 35v-534zM207 762q0 4 4 4h6h6l191 -96v-387q0 -4 -4 -4h-7h-4l-192 96v387zM1147 766h6h6t4 -4v-387l-192 -96h-4h-6t-5 4v387zM391 309v146l-141 -70v-4zM979 309l143 72v4l-143 70v-146zM229 403l162 80v172l-162 80v-332zM1141 403v332 l-162 -80v-172zM672 717v160l-156 -78l80 -119zM774 680q6 8 14.5 19.5t19.5 27.5t22.5 33.5t17.5 27.5q4 4 4 9v2v2l-154 76v-160zM498 817l159 80l-346 174l-159 -80zM872 817l347 174l-160 80l-346 -174zM672 918v333l-334 -168l160 -77l88 41h10q6 0 6 -5v-90zM698 918 l70 34v90q0 4 4 5h8h4l88 -41l160 77l-334 168v-333zM43 965l53 26l-53 27v-53zM578 965v53l-52 -27zM793 965l51 26l-51 27v-53zM1327 965v53l-51 -27zM53 1040l70 -34l160 77l-150 76h-2h-2q-2 0 -4 -3t-4 -5q-4 -6 -13.5 -20.5t-20.5 -30t-20.5 -29.5t-13.5 -20 q0 -2 -1 -4.5t-1 -4.5zM1247 1006l71 35.5t3 0.5v2v3l-78 114l-156 -78zM311 1098l346 174l-159 80l-346 -174zM1059 1098l160 80l-347 174l-159 -80z" />
<glyph unicode="1" horiz-adv-x="1374" d="M20 580l93 45v280l94 49v279l196 100l291 -145v-297l-8 -4h-2l-80 39v-66l78 -39l86 127v285l199 100l196 -98l92 -141v-295l-88 -47v-80l183 -92v-297l-572 -285l-92 45l-94 -45l-572 285v297zM578 31v157l-185 97v559l-176 88l-80 -41v-252l74 35h6h6t4 -4v-291 q0 -4 -4 -4h-6h-6l-168 82v-160zM604 31l68 32v160l-68 -35v-157zM766 31v157l-68 35v-160zM793 31l534 266v160l-168 -82h-12q-4 0 -4 4v547l-168 -84l-90 -133v-238l71 107q4 4 11 4q8 0 8 -4v-295l-182 -95v-157zM592 211l80 41v78l-80 41l-156 -78v-4zM778 211l156 78v4 l-156 78l-80 -41v-78zM418 311l160 80v535l-160 -82v-533zM952 311v217l-69 -104q-4 -4 -9 -4h-2h-2l-77 37v-66zM686 350l80 41v78l-80 41l-82 -41v-78zM205 403v107h-84l-60 -31v-4zM1167 403l142 72v4l-60 31h-82v-107zM860 451v254l-162 79v-252zM43 498l53 26l-53 27 v-53zM604 498l68 34v158l-68 -33v-159zM1327 498v53l-51 -27zM129 535h76v110l-144 -72v-4zM1167 535h74l68 34v4l-142 72v-110zM604 686l68 33v80l-68 32v-145zM868 727l78 115v2v2l-4 4l-158 80l-79 -121zM1165 778l68 35v252l-146 -72l78 -41v-174zM403 866l156 78v4 l-156 78l-153 -78v-4zM967 866l155 78v4l-155 78l-156 -78v-4zM672 920v251l-80 41l-174 -86v-79zM229 967l162 80v79l-162 80v-239zM793 967l174 84l57 -27l-66 98l-165 84v-239zM1065 1012h2h2l158 78v2q0 2 -2 5t-2 5q-6 10 -17.5 27.5t-23 34t-27.5 38.5l-8 8l-156 -80 q-4 0 -4 -2t1 -4t3 -4q2 -6 12.5 -20.5t20.5 -30.5t20.5 -30.5t14.5 -20.5zM403 1147l156 78v4l-156 78l-153 -78v-4zM967 1147l155 78v4l-155 78l-156 -78v-4z" />
<glyph unicode="2" horiz-adv-x="1374" d="M20 580l168 86l-168 86v292l97 144l372 186h19l178 -86l176 86h21l372 -186l95 -141v-388q0 -10 -12.5 -20t-16.5 -21q2 -4 10 -15t12 -15q2 -2 7 -10v-295l-572 -285l-92 45l-94 -45l-572 285v297zM578 31v157l-269 138q-8 6 -8 10q0 12 12 12l265 45v271l-89 131 l-366 184l-80 -41v-172l164 -80v78q0 4 4 4h6h6l191 -96v-107q-4 -4 -8.5 -5t-6.5 -3l-356 -88v-172zM604 31l68 32v160l-68 -35v-157zM766 31v157l-68 35v-160zM793 31l534 266v160l-266 -131h-2q-8 0 -8 12q0 6 8 14l268 316v270l-80 41l-364 -182l-90 -135v-164l161 82 v92l193 96h6h6t4 -4v-109l-370 -465v-159zM592 211l65 33l-71 37q-4 2 -4 10v4q4 6 19 25.5t20 23.5q0 2 1 5t0 4t-1 3q-6 4 -31 15l-240 -39zM776 213l359 446l-76 39l-82 -43v-90l-252 -129l-109 -137v-6zM623 383q0 -2 6 -4t10 -4h2q8 0 16.5 13t10.5 20l-45 -23v-2z M1247 510q-16 0 -32.5 -15.5t-24.5 -25.5q-4 -4 -13.5 -15.5t-20.5 -23.5t-20.5 -23.5t-13.5 -17.5l-5 -5t-3 -5l195 96v4l-60 31h-2v0zM604 403l148 74l-78 41v174l-70 -35v-254zM43 498l53 26l-53 27v-53zM766 498v159l-68 33v-158zM1327 498v53l-51 -27zM391 600 q-10 0 -27.5 -4t-42 -10t-50 -13.5t-42.5 -11.5q-2 0 -6 -1t-4 -3q-4 -2 -16.5 -7t-24.5 -12.5t-24.5 -13.5t-16.5 -8h4l250 64v20v0zM123 539l88 41l174 45l-166 26l-158 -78v-4zM1255 543l62 30q4 4 -2 11.5t-10 11.5l-5 4l-45 -53v-4zM387 647h6q0 8 -6 12l-158 78v-63z M672 719v160l-156 -78l80 -119zM774 682q6 6 14.5 18.5t19.5 28.5t22.5 33.5t17.5 28.5q4 0 4 8v2l-154 78v-160zM1141 686v51l-54 -26zM498 819l159 80l-346 172l-159 -78zM872 819l347 174l-160 78l-346 -172zM686 913l82 41v90q0 4 4 5h8h4l88 -43l160 79l-336 168v-268 l-75 -39zM43 967l53 26l-53 25v-51zM578 967v51l-52 -25zM592 1049q6 0 8 -1t2 -4v-77l70 32v254l-334 -168l160 -79l88 43h6v0zM793 967l51 26l-51 25v-51zM1327 967v51l-51 -25zM51 1044l1 -1t1 -3l70 -34l160 79l-150 76h-2h-2l-8 -8q-4 -6 -13.5 -20.5t-20.5 -30 t-20.5 -29.5t-13.5 -20q0 -3 -2 -9zM1247 1006l70 34q0 4 4 4v3v2l-78 114l-156 -78zM311 1100l346 174l-159 80l-346 -174zM1059 1100l160 80l-347 174l-159 -80z" />
<glyph unicode="3" horiz-adv-x="1374" d="M498 43l-478 240v387l78 121q4 0 4 8v2l-82 43v200l97 144l475 237l186 -90l84 39h21l467 -233v-389l-84 -129l84 -45v-201l-95 -141l-477 -238l-186 90zM766 31v157l-70 35v-82l-75 -39zM793 31l446 223l88 131v178l-82 43q-8 6 -8 12t4 11l86 131v178l-80 41l-454 -227 v-160l354 176h6h6t4 -4v-107l-184 -94v-160l168 84h6h6t4 -4v-106l-370 -189v-157zM498 70l80 41v178l-86 131l-5 10q0 6 9 12l82 43v179l-89 131l-446 223v-158l371 -188v-107q0 -4 -4 -4h-7h-4l-170 84v-160l185 -94v-106q0 -4 -4 -4h-7h-4l-356 176v-160zM604 123l70 35 v92l92 47v65l-162 -79v-160zM778 211l344 172v2l-63 31l-92 -43l-95 43l-81 -41v-90l-78 -41zM754 385l4 4v2v2l-76 115l-166 -82l80 -119zM391 311v66l-268 133l-62 -31v-4zM844 430l-76 41v80l-63 -31l79 -121zM952 403v160l-80 41l-79 -41v-78zM1141 403v54l-54 -27z M43 498l72 34h18l72 -34v65l-162 82v-147zM604 498l148 73l-78 41v80l-70 -35v-159zM967 586l155 78v2l-63 32l-158 -80zM51 670l1 -1t1 -3l154 -74v80l76 39l-150 75h-2h-2q-2 0 -4 -3t-4 -5q-4 -6 -13.5 -20.5t-20.5 -29.5t-20.5 -29.5t-13.5 -20.5q0 -2 -1 -4t-1 -4z M391 592v65l-80 41l-61 -32v-2zM766 592v160l-137 67l67 -100v-94zM666 715v2v2q-4 4 -4 8q-10 14 -27 39t-28 42t-13 19l-8 9l-70 -35l80 -119zM1141 686v51l-54 -26zM778 772l441 221l-160 78l-436 -217v-4zM498 819l159 80l-440 219l-156 -78v-2zM684 926q0 -2 6 -8h2h2 l74 36v90q0 4 4 5h8h4l88 -43l160 79l-336 168v-174l-80 -41l-4 -4q0 -4 4 -8q4 -6 13.5 -20.5t21 -29.5t20.5 -29.5t13 -20.5zM645 932v4l-57 88l-62 -31zM793 967l51 26l-51 25v-51zM1327 967v145l-141 -72v-2zM498 1006l174 88v159l-334 -168zM1153 1053l156 77v5 l-437 219l-159 -80zM129 1161l-8 -8l-53 -82l116 59v5l-51 26h-2h-2zM311 1100l437 219v4l-156 76l-440 -219z" />
<glyph unicode="4" horiz-adv-x="1374" d="M393 362l-176 -83l-197 98v764l197 98l176 -86v174l199 98l94 -45l92 45l199 -98v-174l176 86l197 -98v-858l-197 -99l-199 101v77l-163 -79v-187l-199 -98l-199 98v266zM578 31v721l-162 79v-266q0 -4 -6 -4h-7h-4l-192 96v281l-164 80v-438l373 -189v-280zM604 31 l162 80v172l-92 47v456l-70 -34v-721zM1141 217v240l-162 -80v-80zM1159 487q2 0 6 -4v-266l162 80v721l-162 -80v-281l-194 -96h-4h-9q-4 0 -4 4v266l-161 -79v-441l354 176h6h6zM205 311v158l-162 82v-160zM229 311l144 72v2l-144 72v-146zM766 311v441l-68 32v-440z M391 592v145l-141 -71v-2zM979 592l143 72v2l-143 71v-145zM229 686l162 80v252l-162 -80v-252zM1141 686v252l-162 80v-252zM592 772l80 41v78l-80 41l-156 -78v-4zM778 772l156 78v4l-156 78l-80 -41v-78zM418 872l141 72v4l-141 70v-146zM952 872v146l-141 -70v-4z M672 920v333l-68 -34v-267zM698 920l68 32v267l-68 34v-333zM217 961l156 77v2l-60 31h-192l-60 -31v-2zM1153 961l156 77v2l-60 31h-190l-62 -31v-2zM578 967v252l-160 81v-253zM793 967l159 80v253l-159 -81v-252zM43 1061l53 24l-53 27v-51zM391 1061v51l-53 -27z M979 1061l53 24l-53 27v-51zM1327 1061v51l-51 -27zM129 1098h176l68 32v5l-156 77l-156 -77v-5zM1065 1098h176l68 32v5l-156 77l-156 -77v-5zM592 1241l80 39v80l-80 39l-156 -76v-4zM778 1241l156 78v4l-156 76l-80 -39v-80z" />
<glyph unicode="5" horiz-adv-x="1374" d="M498 43l-478 240v202l82 43v2q0 2 -1 5.5t-3 3.5l-78 120v482l572 284l94 -45l92 45l572 -284v-389l-74 -41l74 -39v-295l-95 -141l-477 -238l-186 90zM766 31v157l-70 35v-82l-75 -39zM793 31l446 223l88 131v272l-80 41l-276 -137h-4h-6t-5 4v107l371 188v158 l-534 -266v-361l79 -41l275 137h6h6t4 -4v-106l-370 -189v-157zM498 70l80 41v272l-86 131l-285 143v107q0 4 4 4h6h6l355 -176v160l-535 266v-350l90 -133l281 -144v-106q0 -4 -4 -4h-7h-4l-356 176v-160zM604 123l70 35v92l92 47v80l-80 39l-82 -39v-254zM778 211l344 172 v2l-63 31l-187 -90l-81 36v-77l-78 -41zM391 311v66l-268 133l-62 -31v-4zM666 434v2v2q-4 0 -4 8q-8 10 -19.5 28t-23 33t-25.5 40l-8 8l-70 -35l80 -121zM766 403v349l-70 34v-176l-80 -41q-2 0 -3 -2t0 -5t3 -5l78 -117zM1141 403v54l-54 -27zM498 539l61 30v4l-248 125 l-61 -32v-2zM604 592l68 33v159l-68 -32v-160zM979 592l240 119l-66 32l-174 -86v-65zM229 686l54 25l-54 26v-51zM1247 725l80 41v65l-141 -71v-4zM592 772l80 41v78l-359 180h-192l-60 -31v-2zM778 772l531 266v2l-60 31h-190l-361 -180v-78zM674 918v81l76 39l-76 41v174 l-336 -168l160 -79l88 43h10q6 0 6 -5v-90zM698 920l50 24v4l-50 25v-53zM778 961l66 32l-66 33l-65 -33zM578 967v51l-52 -25zM872 1006l160 79l-334 168v-159zM43 1061l53 24l-53 27v-51zM1327 1061v51l-51 -27zM129 1098h176l367 182v80l-80 39l-531 -264v-5zM1065 1098 h176l68 32v5l-531 264l-80 -39v-80z" />
<glyph unicode="6" horiz-adv-x="1374" d="M20 377v762l469 233h19l84 -39l186 90l477 -237l95 -142v-669l-95 -142l-383 -190l-186 90l-188 -90l-381 190zM498 68l80 41v272l-86 131l-285 143v107q0 4 4 4h6h6l355 -176v160l-455 227l-80 -41v-551l90 -133zM872 68l367 184l88 133v270l-80 41l-276 -137h-4h-6 t-5 4v107l371 188v160l-444 -223l-90 -136v-550zM604 123l68 33v252l-68 -33v-252zM766 123v532l-70 35v-82l-80 -41q-4 0 -4 -2t1 -5t3 -3l80 -121v-280zM207 481q0 4 4 4h6h6l191 -96v-106q0 -4 -4 -4h-7h-4l-192 96v106zM1147 485h6h6t4 -4v-106l-192 -96h-4h-6t-5 4v106 zM391 309v66l-80 41l-61 -31v-4zM979 309l143 72v4l-63 31l-80 -41v-66zM666 432v2v2q-4 4 -4 8q-10 14 -27 39t-28 42.5t-13 19.5l-8 8l-70 -35l80 -119zM229 403l54 25l-54 27v-52zM1141 403v52l-54 -27zM498 537l61 30v4l-248 125l-61 -30v-4zM604 590l70 35v88q2 2 3 5 t3 3l13 19.5t18.5 28.5t18.5 29.5t13 20.5l-139 -69v-160zM979 590l240 121l-66 32l-174 -88v-65zM774 680q6 8 14.5 19.5t19.5 27.5t22.5 33.5t17.5 27.5q4 4 4 9v2v2l-68 33l-79 -119zM229 684l54 27l-54 24v-51zM1327 684v145l-141 -71v-2zM592 770l156 78v4l-437 219 l-159 -80zM872 817l437 219v4l-156 76l-440 -219zM674 918v79l76 41l-76 39v174l-336 -168l160 -77l88 41h10q6 0 6 -5v-90zM698 918l50 24v4l-50 25v-53zM778 958l66 33l-66 33l-65 -33zM43 965l141 71v4l-141 70v-145zM578 965v53l-52 -27zM872 1006l160 77l-334 168v-159 zM217 1051l440 221l-159 80l-437 -219v-5zM1305 1073q-4 0 -5 -4q0 -4 5 -4q4 0 4 4t-4 4zM1298 1073h2q0 2 -1 4t-1 4q-8 10 -21 29.5t-21.5 33t-10.5 15.5h-8l-51 -26v-5zM1059 1098l160 80l-441 221l-155 -78v-4z" />
<glyph unicode="7" horiz-adv-x="1374" d="M207 201l86 217h2v2q0 2 -1 2t-2 1t-1 3l-80 41q-6 2 -6 10l-131 326l-8 16q-4 2 -20.5 10.5t-20.5 12.5q-2 0 -5 2v295l572 284l94 -43l92 43l572 -284v-297l-183 -645q-2 -2 -3 -6.5t-5 -4.5l-192 -96l-193 96q-4 2 -4 9v6l64 227v2v2q0 2 -5 4l-59 33l-25 78 q-137 -342 -140 -350.5t-7 -10.5l-195 -96l-192 96q-4 2 -4 9v6zM399 119l179 448v183l-535 268v-160l367 -186q4 -2 4 -10v-9l-181 -452zM952 123v-2h2q2 0 2 2q2 0 5 2l174 608l-220 -108l-120 -424zM1163 748l-176 -623l158 80l182 643v170l-534 -268v-160l354 176h6 q10 0 10 -12v-6zM432 129l152 76l149 373l-47 24l-78 -39q-6 -2 -10 -14l-166 -412v-8zM301 449l2 -3q2 2 3 4.5t3 4.5q2 6 10.5 27.5t12.5 29.5q0 2 4 10l-82 201l-152 78v-2v-2q0 -2 2 -6.5t2 -6.5l121 -299zM788 489q0 -2 3.5 -4t5.5 -4q4 -4 21.5 -11t21.5 -11l4 8 l39 131v8l-99 -47h-16zM291 702q0 -2 1 -6t1 -6q2 -6 10 -24.5t16.5 -40t15.5 -40t11 -26.5h2q2 0 7 11.5t11.5 26.5t12.5 31.5t8 24.5v2v2l-96 50v-2v-3zM604 590l68 35v157l-68 -32v-160zM766 590v160l-68 32v-157zM592 770l80 41v78l-359 180h-192l-60 -29v-4zM778 770 l531 266v4l-60 29h-190l-361 -180v-78zM666 924l2 -4q2 -2 8 -4.5t8 -4.5h2l98 50v6q0 18 -7 35.5t-7 35.5q0 8 8 9h6l88 -41l160 77l-336 168v-174l-65 -35zM635 936l-27 96l-82 -41zM799 1010q2 -4 4 -13.5t4 -13.5q0 -2 2 -4t2 -4h2h2q4 2 14.5 8t14.5 8l-45 23v-2v-2z M498 1006l174 86v159l-334 -168zM43 1059l53 24l-53 27v-51zM1327 1059v51l-51 -27zM129 1096h176l367 184v78l-80 41l-531 -266v-5zM1065 1096h176l68 32v5l-531 266l-80 -41v-78z" />
<glyph unicode="8" horiz-adv-x="1374" d="M20 377v291l27 43l-27 41v290l97 144l372 186h19l178 -86l176 86h21l372 -186l95 -142q0 -293 -1 -296t-3 -5q-2 -4 -8.5 -15t-10.5 -15v-6q4 -4 10 -15.5t9 -15.5q4 -4 4 -8v-293l-95 -142l-383 -190l-186 90l-188 -90l-381 190zM498 68l80 41v178l-86 131q-4 8 -5 12 q0 4 9 10l82 43v179l-89 131l-366 184l-80 -41v-176l90 -135v-17l-90 -47v-176l90 -133zM872 68l367 184l88 133v176l-82 43q-8 6 -8 12t4 11l86 131v178l-80 41l-364 -182l-90 -136v-176l81 -43q8 -6 9 -14v-4l-90 -137v-176zM604 123l68 33v159l-68 -34v-158zM766 123v158 l-68 34v-159zM207 481q0 4 4 4h6h6l191 -96v-106q0 -4 -4 -4h-7h-4l-192 96v106zM1147 485h6h6t4 -4v-106l-192 -96h-4h-6t-5 4v106zM672 342v160l-156 -78l80 -119zM774 305q6 8 14.5 19.5t19.5 28t22.5 33.5t17.5 28q4 4 4 8v2v2l-154 76v-160zM391 309v66l-80 41l-61 -31 v-4zM979 309l143 72v4l-63 31l-80 -41v-66zM229 403l54 25l-54 27v-52zM1141 403v52l-54 -27zM604 496l68 34v160l-68 -35v-159zM766 496v159l-68 35v-160zM207 762q0 4 4 4h6h6l191 -96v-107q0 -4 -4 -4h-7h-4l-192 96v107zM1147 766h6h6t4 -4v-107l-192 -96h-4h-6t-5 4 v107zM43 590l53 26l-53 27v-53zM391 590v65l-80 41l-61 -30v-4zM979 590l143 72v4l-63 30l-80 -41v-65zM1327 590v53l-51 -27zM53 666q4 -4 15.5 -9.5t15.5 -7.5v4l-23 35q0 -2 -3 -6t-5 -6q0 -2 -1 -4t-1 -4zM1311 684q-10 0 -15.5 -13.5t-9.5 -21.5q4 2 15.5 7.5t13.5 7.5 l3 3t3 1v2v2q-2 2 -5 6t-3 6h-2v0zM672 717v160l-156 -78l80 -119zM774 680q6 8 14.5 19.5t19.5 27.5t22.5 33.5t17.5 27.5q4 4 4 9v2v2l-154 76v-160zM229 684l54 27l-54 24v-51zM1141 684v51l-54 -24zM498 817l159 80l-346 174l-159 -80zM872 817l347 174l-160 80 l-346 -174zM672 918v333l-334 -168l160 -77l88 41h10q6 0 6 -5v-90zM698 918l70 34v90q0 4 4 5h8h4l88 -41l160 77l-334 168v-333zM43 965l53 26l-53 27v-53zM578 965v53l-52 -27zM793 965l51 26l-51 27v-53zM1327 965v53l-51 -27zM53 1040l70 -34l160 77l-150 76h-2h-2 q-2 0 -4 -3t-4 -5q-4 -6 -13.5 -20.5t-20.5 -30t-20.5 -29.5t-13.5 -20q0 -2 -1 -4.5t-1 -4.5zM1247 1006l71 35.5t3 0.5v2v3l-78 114l-156 -78zM311 1098l346 174l-159 80l-346 -174zM1059 1098l160 80l-347 174l-159 -80z" />
<glyph unicode="9" horiz-adv-x="1374" d="M393 362l-176 -83l-197 98v764l469 233h19l84 -39l186 90l477 -237l95 -141v-764l-197 -99l-199 101v77l-82 -36l-81 36v-266l-199 -98l-199 98v266zM578 31v721l-455 227l-80 -41v-270l90 -133l283 -144v-280zM604 31l162 80v266l-90 47v291q0 4 4 8q2 6 11 19.5 t19.5 28.5t19.5 28.5l13 19.5l-139 -67v-721zM1141 217v240l-162 -80v-80zM1159 487q2 0 6 -4v-266l162 80v721l-444 -221l-90 -135v-271l79 -41l275 137h6h6zM205 311v158l-88 47l-74 107v-232zM229 311l144 72v2l-144 72v-146zM766 403v254l-68 33v-252zM207 764q0 4 4 4 h6h6l191 -96v-107q0 -4 -4 -4h-7h-4l-192 96v107zM1147 768h6h6t4 -4v-107l-192 -96h-4h-6t-5 4v107zM391 592v65l-80 41l-61 -32v-2zM979 592l143 72v2l-63 32l-80 -41v-65zM774 682q6 6 14.5 18.5t19.5 28.5t22.5 33.5t17.5 28.5q4 0 4 8v2l-68 35l-79 -119zM229 686 l54 25l-54 26v-51zM1141 686v51l-54 -26zM592 772l156 78v4l-437 217l-159 -78zM872 819l437 219v2l-156 78l-440 -219zM672 920v333l-334 -168l160 -79l88 43h10q6 0 6 -5v-90zM698 920l70 34v90q0 4 4 5h8h4l88 -43l160 79l-334 168v-333zM43 967l141 71v2l-141 72v-145z M578 967v51l-52 -25zM793 967l51 26l-51 25v-51zM217 1053l440 221l-159 80l-437 -219v-5zM1305 1075q-4 0 -5 -4q0 -4 5 -4q4 0 4 4t-4 4zM1298 1075h2l-2 6l-53 80h-8l-51 -26v-5zM1059 1100l160 80l-441 219l-155 -76v-4z" />
<glyph unicode="@" d="M39 467l356 88q2 2 11 4l4 4v107l-191 96h-12q-4 0 -4 -4v-78l-164 80v172l80 41l368 -184l86 -131v-271l-264 -45q-12 0 -12 -10q0 -6 8 -12l268 -138v-157l-534 266v172zM668 221v-160l-68 -32v157zM694 221l68 -35v-157l-68 32v160zM1159 653v109q0 4 -4 4h-6h-6 l-193 -96v-92l-162 -82v163l91 136l364 182l80 -41v-270l-270 -316q-6 -10 -6 -14q0 -12 8 -12h2l266 131v-160l-535 -266v159zM346 330q240 39 252 33.5t18 -9.5q0 -2 1 -3t0 -4t-1 -5q-4 -4 -19 -23.5t-19 -23.5v-6q0 -8 4 -10l71 -37l-65 -33l-242 121v0zM612 297 l109 137l252 129v90l82 43l75 -39l-358 -446l-160 80v6zM1245 508l60 -31v-4l-193 -96q6 10 13.5 20.5t18.5 22.5t22.5 25.5t17.5 21.5q10 10 26.5 25.5t32.5 15.5h2zM670 690v-174l78 -41l-148 -72v252zM92 522l-53 -26v53zM694 688l68 -33v-159l-68 34v158zM1323 549v-53 l-53 26zM387 578l-235 -60h-13q10 4 39 18.5l37 18.5q4 4 12 4q16 4 41 11.5t49.5 13.5t59.5 14h10v-20zM57 571l158 78l166 -26l-174 -45l-88 -41l-62 30v4zM1296 598l4 -4q4 -4 15 -19l-2 -4l-62 -30v4zM227 735l156 -78q6 -4 6 -12h-6l-156 27v63zM512 799l156 78v-160 l-76 -37zM694 877l154 -78v-4l-4 -7q-6 -10 -17.5 -27.5t-22.5 -33.5t-28 -41l-6 -6l-76 37v160zM1137 735v-51l-54 25zM307 1069l346 -172l-159 -80l-347 174zM1055 1069l159 -78l-346 -174l-159 80zM692 983v268l336 -168l-160 -79l-88 43h-4h-8q-4 0 -4 -5v-90l-82 -41 l-66 33zM92 991l-53 -26v51zM573 1016v-51l-51 26zM582 1047l-88 -43l-158 79l332 168v-254l-70 -32v77l-4 5h-6h-6zM840 991l-52 -26v51zM1323 1016v-51l-53 26zM47 1042l1 4q1 3 3 5q2 6 12.5 20t20.5 29.5t20.5 30t14.5 20.5q0 2 3 4t3 4h2h2l150 -76l-160 -79l-68 34 l-4 4v0zM1239 1161l76 -114v-3v-2l-2 -4l-70 -34l-160 79zM494 1350l159 -78l-346 -174l-160 80zM868 1350l346 -172l-159 -80l-346 174z" />
<glyph unicode="A" d="M412 389l-193 96h-12q-4 0 -4 -4v-266l-164 80v641l80 41l368 -184l86 -131v-633l-161 82v278zM668 688v-627l-68 -32v626zM694 688l68 -33v-626l-68 32v627zM879 795l364 182l80 -41v-641l-162 -80v266q0 4 -6 4h-6h-6l-193 -96v-278l-162 -82v630zM387 375v-80 l-160 -80v240zM975 375l162 80v-240l-162 80v80zM395 559h4h7q4 0 4 4v107l-191 96h-6q-8 0 -8 -4v-107zM952 563q0 -4 4 -4h7h4l192 96v107q0 4 -4 4h-6h-6l-191 -96v-107zM246 664l61 32l80 -41v-65l-141 72v2zM1055 696l63 -32v-2l-143 -72v65zM512 799l156 78v-160 l-76 -37zM694 877l154 -78v-4l-4 -7q-6 -10 -17.5 -27.5t-22.5 -33.5t-28 -41l-6 -6l-76 37v160zM279 709l-52 -25v51zM1137 735v-51l-54 25zM307 1069l346 -172l-159 -80l-347 174zM1055 1069l159 -78l-346 -174l-159 80zM598 1042q0 4 -4 5h-6h-6l-88 -43l-158 79l332 168 v-333l-70 34v90zM1028 1083l-160 -79l-88 43h-4h-8q-4 0 -4 -5v-90l-70 -34v333zM92 991l-53 -26v51zM573 1016v-51l-51 26zM840 991l-52 -26v51zM1323 1016v-51l-53 26zM47 1042l1 4q1 3 3 5q2 6 12.5 20t20.5 29.5t20.5 30t14.5 20.5q0 2 3 4t3 4h2h2l150 -76l-160 -79 l-68 34l-4 4v0zM1239 1161l76 -114v-3v-2l-2 -4l-70 -34l-160 79zM494 1350l159 -78l-346 -174l-160 80zM868 1350l346 -172l-159 -80l-346 174z" />
<glyph unicode="B" d="M690 141v201l-78 121q-2 2 -4 6q0 4 4 4l78 41v203l-65 100l137 -67v-721l-146 71zM1243 977l80 -41v-178l-86 -131q-4 -4 -4 -11q0 -6 8 -12l82 -43v-178l-88 -131l-447 -223v721zM39 1016l448 -223l86 -131v-179l-81 -43q-8 -6 -9 -12q0 -2 4 -10l86 -131v-178l-79 -41 l-455 227v721zM668 315v-159l-68 -35v160zM395 279h4h7q4 0 4 4v106l-191 96h-6q-8 0 -8 -4v-106zM952 283q0 -4 4 -4h7h4l192 96v106q0 4 -4 4h-6h-6l-191 -96v-106zM512 424l70 35l8 -8q2 -2 13 -19.5t27.5 -42t26.5 -39.5q0 -4 5 -8v-2v-2l-70 -33zM246 383l61 33l80 -41 v-66l-141 72v2zM1055 416l63 -33v-2l-143 -72v66zM279 428l-52 -25v52zM1137 455v-52l-54 25zM668 688v-158l-68 -34v159zM395 559h4h7q4 0 4 4v107l-191 96h-6q-8 0 -8 -4v-107zM952 563q0 -4 4 -4h7h4l192 96v107q0 4 -4 4h-6h-6l-191 -96v-107zM246 664l61 32l80 -41v-65 l-141 72v2zM1055 696l63 -32v-2l-143 -72v65zM512 799l70 35l8 -9q2 -2 13 -19.5t27.5 -42t26.5 -38.5q0 -4 5 -8v-2v-2l-70 -33zM279 709l-52 -25v51zM1137 735v-51l-54 25zM618 852l437 217l159 -78l-440 -221l-156 78v4zM57 1038l156 78l440 -219l-159 -80l-437 217v4z M598 1042q0 4 -4 5h-6h-6l-88 -43l-158 79l332 168v-333l-70 34v90zM1028 1083l-160 -79l-88 43h-4h-8q-4 0 -4 -5v-90l-70 -34v333zM573 1016v-51l-51 26zM840 991l-52 -26v51zM1182 1038l141 72v-145l-141 69v4zM868 1350l437 -217v-5l-156 -77l-440 221zM129 1159l53 -26 v-5l-119 -59l56 82q0 2 3 4t3 4h2h2zM588 1397l155 -78v-2l-436 -219l-160 80z" />
<glyph unicode="C" d="M39 385v551l80 41l368 -184l86 -131v-166l-161 82v92l-193 96h-6q-8 0 -8 -4v-387l190 -96h4h7q6 0 6 4v77l161 -79v-172l-79 -41l-365 184zM788 659l91 136l364 182l80 -41v-172l-162 -80v78q0 4 -6 4h-6h-6l-191 -96v-387q0 -4 4 -4h7h4l194 96v92l162 82v-166 l-88 -131l-367 -184l-80 41v550zM668 315v-159l-68 -35v160zM692 342l-92 47v80l92 45v176l70 -35v-534l-70 35v186zM432 383l143 72v-80l78 -39l-65 -33l-156 78v2zM246 383l155 78l64 -33l-76 -39v-80l-143 72v2zM1118 383v-2l-143 -72v146zM387 655v-172l-160 -80v332z M975 549l162 -80v-66l-162 80v66zM414 549l141 -72v-4l-61 -31l-80 41v66zM993 571l62 31l94 -45l94 45l62 -31v-4l-156 -78l-156 78v4zM668 688v-158l-68 -34v159zM1055 696l82 -41v-65l-72 33h-18l-72 -33v65zM1323 735v-145l-72 33h-18l-72 -33v65zM512 799l156 78v-160 l-76 -37zM694 877l154 -78v-4l-4 -7q-6 -10 -17.5 -27.5t-22.5 -33.5t-28 -41l-6 -6l-76 37v160zM1137 735v-51l-54 25zM307 1069l346 -172l-159 -80l-347 174zM1055 1069l159 -78l-346 -174l-159 80zM598 1042q0 4 -4 5h-6h-6l-88 -43l-158 79l334 168v-268l78 -39l-66 -33 l-84 41v90zM92 991l-53 -26v51zM573 1016v-51l-51 26zM694 1251l334 -168l-160 -79l-88 43h-4h-8q-4 0 -4 -5v-77l-70 32v254zM840 991l-52 -26v51zM1323 1016v-51l-53 26zM47 1042l1 4q1 3 3 5q2 6 12.5 20t20.5 29.5t20.5 30t14.5 20.5q0 2 3 4t3 4h2h2l150 -76l-160 -79 l-68 34l-4 4v0zM1239 1161l76 -114v-3v-2l-2 -4l-70 -34l-160 79zM494 1350l159 -78l-346 -174l-160 80zM868 1350l346 -172l-159 -80l-346 174z" />
<glyph unicode="D" d="M600 186l90 47v390l-90 137v69l162 -79v-721l-162 80v77zM1149 930l174 -88v-365l-182 -272l-353 -176v721zM39 1016l354 -176l180 -273v-364l-172 -88l-362 180v721zM668 596v-346l-68 -35v346zM952 283q0 -4 4 -4h7h4l98 49l94 141v201l-94 47h-18l-95 -47v-387z M1028 336l-53 -27v51zM307 324l103 51v203l-95 139l-96 49h-6q-8 0 -8 -4v-387zM246 383l141 72v-66l-80 -39l-61 31v2zM975 549l149 -76q4 0 4 -4v-2l-75 -117l-78 39v160zM1323 432v-41l-4 -4l-29 -14h-4v4zM299 698l88 -131v-84l-160 -80v332zM975 655l80 41l82 -41v-159 l-162 82v77zM424 838l-2 6q0 2 2 4l158 78q2 2 16 -18.5t18 -28.5q-4 -4 -17 -10.5l-17 -8.5q0 -2 -4 -4v-104l79 -121q0 -4 5 -8v-2l-70 -35zM618 852l345 172l155 -78v-4l-344 -172l-156 78v4zM57 1038l156 78l342 -170v-4l-154 -78l-344 170v4zM1161 1030l162 80v-240 l-162 80v80zM598 1042q0 4 -4 5h-6h-6l-88 -43l-121 61l37 55l352 176v-65l-92 -47q0 -281 -9.5 -285t-15.5 -6h-4q-12 0 -22.5 22.5t-20.5 32.5v94zM774 1210l363 -180v-65l-174 84l-269 -131v251zM573 1016v-51l-51 26zM807 1227l156 78l342 -172v-5l-156 -77l-342 172v4z M162 1120v4l55 84q160 -80 161 -81t1 -3q2 0 2 -1t-1 -1t-1 -2l-29 -43l-137 66zM246 1227l342 170l155 -78v-2l-342 -172l-155 78v4z" />
<glyph unicode="E" d="M39 1016l534 -266v-160l-354 176h-6q-8 0 -8 -4v-107l368 -186v-160l-354 176h-6q-8 0 -8 -4v-106l368 -189v-157l-534 266v721zM668 221v-160l-68 -32v157zM692 248l-76 41l74 39v202l-74 39l76 39v176l70 -34v-721l-70 32v187zM1323 1016v-158l-371 -188v-107 q0 -4 4 -4h7h4l356 176v-157l-371 -189v-106q0 -4 4 -4h7h4l356 176v-160l-535 -266v721zM246 383l61 33l346 -174l-65 -33l-342 172v2zM668 502v-160l-68 -33v160zM1243 508l62 -31v-4l-330 -164v66zM279 428l-52 -25v52zM246 664l61 32l346 -174l-65 -33l-342 173v2z M1323 549v-53l-53 26zM668 782v-159l-68 -33v160zM1243 788l62 -30v-4l-330 -164v65zM279 709l-52 -25v51zM57 1038l62 31h190l359 -180v-78l-80 -41l-531 264v4zM694 889l359 180h192l60 -31v-4l-531 -264l-80 41v78zM1323 829v-53l-53 27zM598 1042q0 4 -4 5h-6h-6 l-88 -43l-158 79l334 168v-174l75 -41l-75 -39v-82l-72 37v90zM743 946v-4l-49 -24v51zM774 1024l66 -33l-66 -33l-65 33zM573 1016v-51l-51 26zM694 1251l334 -168l-160 -79l-174 88v159zM92 1083l-53 -26v53zM1323 1110v-53l-53 26zM57 1133l531 264l80 -39v-80l-367 -182 h-176l-68 32v5zM694 1358l80 39l531 -264v-5l-68 -32h-176l-367 182v80z" />
<glyph unicode="F" d="M600 281l90 47v202l-74 39l76 39v176l70 -34v-721l-162 80v172zM1323 1016v-158l-371 -188v-107q0 -4 4 -4h7h4l356 176v-157l-373 -189v-278l-162 -82v721zM39 1016l534 -266v-160l-354 176h-6q-8 0 -8 -4v-107l368 -186v-160l-354 176h-12q-4 0 -4 -4v-266l-164 80v721 zM387 375v-80l-160 -80v240zM668 502v-160l-68 -33v160zM993 383l144 72v-146l-144 72v2zM1323 549v-160l-162 -80v160zM246 664l61 32l346 -174l-65 -33l-342 173v2zM668 782v-159l-68 -33v160zM1243 788l62 -30v-4l-330 -164v65zM279 709l-52 -25v51zM57 1038l62 31h190 l359 -180v-78l-80 -41l-531 264v4zM694 889l359 180h192l60 -31v-4l-531 -264l-80 41v78zM1323 829v-53l-53 27zM598 1042q0 4 -4 5h-6h-6l-88 -43l-158 79l334 168v-174l75 -41l-75 -39v-82l-72 37v90zM743 946v-4l-49 -24v51zM774 1024l66 -33l-66 -33l-65 33zM573 1016 v-51l-51 26zM694 1251l334 -168l-160 -79l-174 88v159zM92 1083l-53 -26v53zM1323 1110v-53l-53 26zM57 1133l531 264l80 -39v-80l-367 -182h-176l-68 32v5zM694 1358l80 39l531 -264v-5l-68 -32h-176l-367 182v80z" />
<glyph unicode="G" d="M39 385v551l80 41l454 -227v-160l-354 176h-6q-8 0 -8 -4v-387l190 -96h4h7q4 0 4 4v106l-91 47v160l254 -127v-360l-79 -41l-365 184zM788 659l91 136l444 221v-158l-371 -188v-387q0 -4 4 -4h7h4l192 96v106q0 4 -4 4h-6h-6l-74 -36v159l254 127v-352l-88 -131 l-367 -184l-80 41v550zM668 502v-346l-68 -35v348zM692 528l-76 41l76 39v82l70 -35v-534l-70 35v372zM246 383l61 33l80 -41v-66l-141 72v2zM1118 383v-2l-143 -72v146zM373 664l-78 -41v-187l-68 -33v332zM1137 455v-52l-54 25zM975 643l67 -35v-159l-67 34v160zM401 649 l252 -127l-65 -33l-252 127zM731 815h4q0 -8 -4 -8q-2 -4 -9 -15.5t-16.5 -25.5t-17.5 -26.5t-12 -18.5q-2 -2 -3 -4t-3 -4v-90l-70 -33v160zM993 664l250 124l62 -30v-4l-250 -123l-62 31v2zM780 834l68 -35v-4l-4 -7q-6 -10 -17.5 -27.5t-22.5 -33.5t-28 -41l-6 -6l-70 35 zM307 1069l436 -217v-4l-155 -78l-441 221zM1149 1116l156 -78v-4l-437 -217l-159 80zM598 1042q0 4 -4 5h-6h-6l-88 -43l-158 79l334 168v-174l75 -41l-75 -39v-82l-72 37v90zM743 946v-4l-49 -24v51zM774 1024l66 -33l-66 -33l-65 33zM182 1038v-4l-143 -69v145zM573 1016 v-51l-51 26zM694 1251l334 -168l-160 -79l-174 88v159zM57 1133l437 217l159 -78l-440 -221l-156 77v5zM1182 1133l51 26h8q2 -2 10.5 -15.5t21.5 -32.5t19 -32q2 0 4 -6h-4l-110 55v5zM618 1319l156 78l440 -219l-159 -80l-437 219v2z" />
<glyph unicode="H" d="M412 389l-193 96h-12q-4 0 -4 -4v-266l-164 80v721l164 -80v-281l192 -96h4h7q6 0 6 4v266l161 -79v-721l-161 82v278zM668 782v-721l-68 -32v721zM694 782l68 -32v-721l-68 32v721zM950 829v-266q0 -4 4 -4h9h4l194 96v281l162 80v-721l-162 -80v266q0 4 -6 4h-6h-6 l-193 -96v-278l-162 -82v721zM387 375v-80l-160 -80v240zM975 375l162 80v-240l-162 80v80zM246 664l141 71v-145l-141 72v2zM1118 664v-2l-143 -72v145zM387 1016v-252l-160 -80v252zM975 1016l162 -80v-252l-162 80v252zM432 852l156 78l80 -41v-78l-80 -41l-156 78v4z M694 889l80 41l156 -78v-4l-156 -78l-80 41v78zM555 946v-4l-141 -72v146zM807 946l141 70v-146l-141 72v4zM600 1217l68 34v-333l-68 32v267zM762 1217v-267l-68 -32v333zM57 1038l62 31h190l60 -31v-4l-156 -76l-156 76v4zM993 1038l60 31h192l60 -31v-4l-156 -76l-156 76 v4zM414 1296l159 -79v-252l-159 79v252zM948 1296v-252l-160 -79v252zM92 1083l-53 -26v53zM387 1110v-53l-51 26zM1028 1083l-53 -26v53zM1323 1110v-53l-53 26zM57 1133l156 77l156 -77v-5l-68 -32h-176l-68 32v5zM993 1133l156 77l156 -77v-5l-68 -32h-176l-68 32v5z M432 1319l156 78l80 -39v-80l-80 -39l-156 78v2zM694 1358l80 39l156 -78v-2l-156 -78l-80 39v80z" />
<glyph unicode="I" d="M39 455l168 -82h6h6t4 4v387l-184 94v158l534 -266v-160l-167 82h-5h-6t-4 -4v-387l182 -95v-157l-534 266v160zM668 221v-160l-68 -32v157zM694 221l68 -35v-157l-68 32v160zM971 281v387q0 4 -4 4h-6h-5l-168 -82v160l535 266v-158l-184 -94v-387q0 -4 4 -4h6h6l168 82 v-160l-535 -266v157zM432 291l156 78l80 -41v-78l-80 -41l-156 78v4zM694 328l80 41l156 -78v-4l-156 -78l-80 41v78zM573 561v-172l-159 -80v334zM788 561l160 82v-334l-160 80v172zM57 477l62 31h82v-105l-144 70v4zM1245 508l60 -31v-4l-144 -70v105h84zM92 522l-53 -26 v53zM668 596v-66l-68 -34v65zM694 596l68 -35v-65l-68 34v66zM1323 549v-53l-53 26zM57 571l144 72v-108h-76l-68 32v4zM1305 571v-4l-68 -32h-76v108zM668 782v-159l-68 -33v160zM694 782l68 -32v-160l-68 33v159zM57 1038l62 31h190l359 -180v-78l-80 -41l-531 264v4z M694 889l359 180h192l60 -31v-4l-531 -264l-80 41v78zM668 1251v-159l-93 -50v-77l-239 118zM694 1092v159l334 -168l-242 -118v77zM92 1083l-53 -26v53zM1323 1110v-53l-53 26zM57 1133l531 264l80 -39v-80l-367 -182h-176l-68 32v5zM694 1358l80 39l531 -264v-5l-68 -32 h-176l-367 182v80z" />
<glyph unicode="J" d="M39 385v164l164 -82v-92l192 -96h4h7q6 0 6 4v546l161 -79v-641l-79 -41l-365 184zM788 281l162 79v-77q0 -4 4 -4h9h4l194 96v561l162 80v-633l-88 -131l-367 -184l-80 41v172zM762 829v-440l-92 -47v-186l-70 -35v629zM694 315l68 -34v-160l-68 35v159zM786 375v80 l144 -72v-2l-156 -78l-65 33zM246 383l141 72v-146l-141 72v2zM897 428l66 33l155 -78v-2l-145 -72v80zM387 549v-66l-160 -80v66zM975 1016l162 -80v-533l-162 80v533zM788 643l160 -82v-78l-80 -41l-80 41v160zM57 571l62 31l94 -45l94 45l62 -31v-4l-156 -78l-156 78v4z M201 1030v-440l-72 33h-18l-72 -33v520zM387 1110v-520l-72 33h-18l-70 -33v440zM807 664l141 71v-145l-141 72v2zM948 1296v-532l-160 -80v533zM432 852l156 78l155 -78v-4l-155 -78l-156 78v4zM600 1296l162 -79v-347l-162 80v346zM993 1038l156 78l156 -78v-4l-156 -76 l-156 76v4zM57 1133l156 77l156 -77v-5l-156 -77l-156 77v5zM618 1319l156 78l156 -78v-2l-156 -78l-156 78v2z" />
<glyph unicode="K" d="M373 492q0 4 4 4l158 79l40 -83v-281q4 -8 16.5 -27.5t25 -41t24.5 -41t16 -27.5q2 -4 3.5 -6t1.5 -7v-4l-68 -32l-221 464v3v0zM686 70q-2 4 -14.5 25.5t-30.5 54t-29 51.5q-4 4 -8 12t-4 10v461q2 0 4 2q4 6 15.5 20.5t23.5 30t23.5 28.5t15.5 19h8l72 -34v-721l-68 32 zM950 829v-266q0 -4 4 -4h9q6 0 8 4l188 371l152 76l-215 -455v-18l209 -232q2 -2 4 -5t4 -5v-2v-2l-160 -80l-186 180h-4h-9q-4 0 -4 -4v-276l-162 -82v721zM223 481q-2 4 -10 4h-6t-4 -4v-266l-164 80v721l164 -80v-279q0 -4 4 -4h8h4l184 181l164 -82l-221 -244v-19 l215 -454l-151 76zM309 256l-82 -41v207zM975 350l121 -121h-9l-112 43v78zM1323 979v-588l-4 -4q-4 -2 -18.5 -9t-18.5 -9q-6 6 -20.5 21.5t-31 32.5t-29.5 32.5t-19 21.5q-4 4 -21 23v143zM1120 551q0 10 5 18.5t12 16.5v-56q-17 9 -17 21zM631 758l-56 -68q0 -41 -3 -45 t-5 -6q-8 -10 -22.5 -23.5t-14.5 -15.5l-120 -59l186 207q2 0 13.5 5t17.5 9h4v-4zM573 608v-55l-18 37zM903 893l64 127l166 -82l-160 -315v233zM387 1016v-160l-160 -162v242zM432 852l156 78l80 -41v-78l-80 -41l-156 78v4zM694 889l80 41l156 -78v-4l-156 -78l-80 41v78 zM336 1083l61 31l168 -168l-153 -76v172zM694 1124v127l72 -37l135 -270l-20 -41l-107 55zM600 1217l70 34v-133l82 -172l-70 -35l-82 39v267zM57 1038l62 31h190l60 -31v-4l-156 -76l-156 76v4zM993 1038l60 31h192l60 -31v-4l-156 -76l-156 76v4zM956 1300l64 -126 l-70 -37v-99l-35 -67l-122 248zM414 1296l159 -79v-242l-159 162v159zM1028 1083l-53 -26v53zM1323 1110v-53l-53 26zM57 1133l156 77l156 -77v-5l-68 -32h-176l-68 32v5zM993 1133l156 77l156 -77v-5l-68 -32h-176l-68 32v5zM432 1319l156 78l80 -39v-80l-80 -39l-156 78v2 zM694 1358l80 39l156 -78v-2l-156 -78l-80 39v80z" />
<glyph unicode="L" d="M39 1016l164 -80v-561l370 -189v-157l-534 266v721zM668 221v-160l-68 -32v157zM692 248l-92 49v532l162 -79v-721l-70 32v187zM950 829v-546q0 -4 4 -4h9h4l356 176v-160l-535 -266v721zM246 383l155 78l174 -88v-90l78 -41l-65 -33l-342 172v2zM1055 508l94 -45l94 45 l62 -31v-4l-330 -164v160zM387 1016v-533l-160 -80v533zM414 561l159 82v-160l-79 -41l-80 41v78zM1137 1030v-534l-72 34h-18l-72 -34v614zM1323 1110v-614l-72 34h-18l-72 -34v534zM555 664v-2l-141 -72v145zM414 1296l159 -79v-533l-159 80v532zM618 852l156 78l156 -78 v-4l-156 -78l-156 78v4zM762 1296v-346l-162 -80v347zM57 1038l156 78l156 -78v-4l-156 -76l-156 76v4zM993 1133l156 77l156 -77v-5l-156 -77l-156 77v5zM432 1319l156 78l155 -78v-2l-155 -78l-156 78v2z" />
<glyph unicode="M" d="M412 481q0 4 -6 4h-7q-6 0 -8 -4l-78 -116h-2q-2 0 -4 3t-2 5l-78 194q-6 12 -14 13h-6t-4 -5v-360l-164 80v721l166 -82l86 -213q0 -4 5 -13.5t11 -9.5h2q2 0 6 4l91 132l167 -84v-721l-161 82v370zM668 782v-721l-68 -32v721zM694 782l68 -32v-721l-68 32v721zM958 834 l84 -125q2 0 5.5 -4.5t5.5 -6.5h2q10 0 14 11l86 215l4 8t6 6l158 78v-721l-162 -80v360q0 4 -6 5h-6q-8 0 -10 -5l-86 -215l-78 117q-4 8 -12 8h-9q-4 0 -4 -4v-370l-162 -82v721zM227 504q2 -10 11.5 -31.5t19.5 -47.5t19.5 -48.5t13.5 -30.5q0 -4 5 -13t11 -9h2l78 36 v-65l-160 -80v289v0zM975 360l78 -36h2q6 0 8 4t6 8q2 6 11.5 28.5t20.5 49t20 49t12 29.5q0 8 4 8v-285l-162 80v65zM975 432l2 -1t2 -3q8 -12 37 -55v-4q-4 2 -18.5 9t-18.5 9l-4 4v41v0zM387 432v-41l-4 -4l-29 -14h-4v4zM920 889q0 8 2 14q6 16 17 44t18.5 47.5 t9.5 21.5h8l158 -78v-2v-2q0 -2 -2.5 -5t-2.5 -5q-4 -10 -14 -37t-22.5 -57.5t-23.5 -57.5t-15 -37l-78 117q0 2 -3 4t-5 4q-4 4 -23.5 13.5t-23.5 11.5v4zM387 1016l4 2q4 0 4 -2t4 -6q6 -16 17.5 -44t18.5 -47.5t9 -21.5v-12q-6 -2 -25.5 -11.5t-23.5 -13.5l-4 -4 l-78 -117h-2q-2 0 -4 3t-2 6l-76 190zM432 852l156 78l80 -41v-78l-80 -41l-156 78v4zM694 889l80 41l156 -78v-4l-156 -78l-80 41v78zM397 1114l84 -123q0 -2 4 -6t7 -6h2q8 0 14 12l86 213q2 4 4 8.5t6 6.5l64 32v-333l-80 38l-115 -55q-4 0 -6 5t-4 9.5t-9.5 22.5 t-15.5 37.5t-15 37t-9 21.5q-6 10 -8 13l-70 36zM694 918v333l72 -37l86 -213q0 -4 5 -13t11 -9h2q2 0 4.5 2t4.5 2l88 131l61 -31l-74 -39l-57 -141l-4 -2h-2h-2l-115 55zM57 1038l62 31h190l60 -31v-4l-156 -76l-156 76v4zM993 1038l60 31h192l60 -31v-4l-156 -76l-156 76 v4zM356 1169q0 4 1 7.5t3 9.5q6 16 17.5 43.5t18.5 46t10 20.5h8l157 -77v-2v-3q-4 -4 -4 -10q-4 -10 -15 -36.5t-22.5 -57.5t-22.5 -57.5t-15 -36.5l-78 117l-8 8q-4 4 -24 13t-26 11v4zM948 1296l4 2q4 0 4 -2t5 -6q6 -16 17 -43.5t18.5 -47t9.5 -21.5v-13 q-6 -2 -25.5 -11t-24.5 -13q0 -2 -4 -4l-78 -117h-2q-2 0 -4 3t-2 5l-75 191zM92 1083l-53 -26v53zM1323 1110v-53l-53 26zM57 1133l156 77l156 -77v-5l-68 -32h-176l-68 32v5zM993 1133l156 77l156 -77v-5l-68 -32h-176l-68 32v5zM432 1319l156 78l80 -39v-80l-80 -39 l-156 78v2zM694 1358l80 39l156 -78v-2l-156 -78l-80 39v80z" />
<glyph unicode="N" d="M227 567q-6 12 -14 13h-6t-4 -5v-360l-164 80v721l166 -82l182 -457q6 -12 12 -12h7q6 0 6 4v360l161 -79v-721l-163 82zM668 782v-721l-68 -32v721zM694 782l68 -32v-721l-68 32v721zM958 834l181 -271q4 -4 10 -4h6q6 0 6 4v373l162 80v-721l-170 -84l-178 266 q-4 8 -12 8h-9q-4 0 -4 -4v-370l-162 -82v721zM227 504q4 -12 17.5 -45t27 -68t26.5 -67.5t17 -44.5q2 -2 4 -11v-2q0 -2 -1 -4t-3 -2l-88 -45v289v0zM975 434l135 -205h-4l-131 66v139zM387 1016l4 2q4 0 4 -2t4 -6q6 -16 17.5 -44t18.5 -47.5t9 -21.5v-12 q-6 -4 -25.5 -13.5t-23.5 -11.5q-2 -2 -6 -4v-315l-160 397zM975 1016l162 -80v-324l-162 242v162zM432 852l156 78l80 -41v-78l-80 -41l-156 78v4zM694 889l80 41l156 -78v-4l-156 -78l-80 41v78zM844 930l123 184l61 -31l-78 -41v-172l-106 54v6zM594 1204q2 4 4 8.5 t6 6.5l64 32v-333l-80 38l-117 -57zM762 1217v-267l-68 -32v333zM412 1038q0 98 -2 99.5t-4 3.5q-4 4 -24 13t-26 11v4q0 4 1 7.5t3 9.5q6 16 17.5 43.5t18.5 46t10 20.5h8l157 -77v-2v-3q-4 -4 -4 -10l-104 -262q-2 -2 -4 -8h-2h-2q-2 6 -7.5 19.5t-11.5 27.5t-11 27.5 t-7 19.5q-6 6 -6 10zM948 1296v-163l-127 -191q0 -4 -4 -4h-2h-2q-2 2 -10 5t-10 5l-5 4v265zM57 1038l62 31h190l60 -31v-4l-156 -76l-156 76v4zM993 1038l60 31h192l60 -31v-4l-156 -76l-156 76v4zM92 1083l-53 -26v53zM387 1110v-53l-51 26zM1323 1110v-53l-53 26z M57 1133l156 77l156 -77v-5l-68 -32h-176l-68 32v5zM993 1133l156 77l156 -77v-5l-68 -32h-176l-68 32v5zM432 1319l156 78l80 -39v-80l-80 -39l-156 78v2zM694 1358l80 39l156 -78v-2l-156 -78l-80 39v80z" />
<glyph unicode="O" d="M39 385v551l80 41l368 -184l86 -131v-553l-79 -41l-365 184zM788 659l91 136l364 182l80 -41v-553l-88 -131l-367 -184l-80 41v550zM668 688v-532l-68 -35v534zM694 688l68 -33v-534l-68 35v532zM395 279h4h7q4 0 4 4v387l-191 96h-6q-8 0 -8 -4v-387zM952 283q0 -4 4 -4 h7h4l192 96v387q0 4 -4 4h-6h-6l-191 -96v-387zM246 383l141 72v-146l-141 72v2zM1118 383v-2l-143 -72v146zM387 655v-172l-160 -80v332zM975 655l162 80v-332l-162 80v172zM512 799l156 78v-160l-76 -37zM694 877l154 -78v-4l-4 -7q-6 -10 -17.5 -27.5t-22.5 -33.5 t-28 -41l-6 -6l-76 37v160zM307 1069l346 -172l-159 -80l-347 174zM1055 1069l159 -78l-346 -174l-159 80zM598 1042q0 4 -4 5h-6h-6l-88 -43l-158 79l332 168v-333l-70 34v90zM1028 1083l-160 -79l-88 43h-4h-8q-4 0 -4 -5v-90l-70 -34v333zM92 991l-53 -26v51zM573 1016 v-51l-51 26zM840 991l-52 -26v51zM1323 1016v-51l-53 26zM47 1042l1 4q1 3 3 5q2 6 12.5 20t20.5 29.5t20.5 30t14.5 20.5q0 2 3 4t3 4h2h2l150 -76l-160 -79l-68 34l-4 4v0zM1239 1161l76 -114v-3v-2l-2 -4l-70 -34l-160 79zM494 1350l159 -78l-346 -174l-160 80zM868 1350 l346 -172l-159 -80l-346 174z" />
<glyph unicode="P" d="M600 375l90 47v295l-65 100l137 -67v-721l-162 80v266zM1243 977l80 -41v-272l-88 -132l-285 -143v-278l-162 -82v721zM39 1016l448 -223l86 -131v-273l-79 -39l-275 135h-12q-4 0 -4 -4v-266l-164 80v721zM387 375v-80l-160 -80v240zM993 383l144 72v-146l-144 72v2z M1251 514l72 107v-232l-162 -80v160zM668 688v-252l-68 -33v252zM395 559h4h7q4 0 4 4v107l-191 96h-6q-8 0 -8 -4v-107zM952 563q0 -4 4 -4h7h4l192 96v107q0 4 -4 4h-6h-6l-191 -96v-107zM246 664l61 32l80 -41v-65l-141 72v2zM1055 696l63 -32v-2l-143 -72v65zM512 799 l70 35l8 -9q2 -2 13 -19.5t27.5 -42t26.5 -38.5q0 -4 5 -8v-2v-2l-70 -33zM279 709l-52 -25v51zM1137 735v-51l-54 25zM618 852l437 217l159 -78l-440 -221l-156 78v4zM57 1038l156 78l440 -219l-159 -80l-437 217v4zM598 1042q0 4 -4 5h-6h-6l-88 -43l-158 79l332 168v-333 l-70 34v90zM1028 1083l-160 -79l-88 43h-4h-8q-4 0 -4 -5v-90l-70 -34v333zM573 1016v-51l-51 26zM840 991l-52 -26v51zM1182 1038l141 72v-145l-141 69v4zM868 1350l437 -217v-5l-156 -77l-440 221zM129 1159l53 -26v-5l-119 -59l56 82q0 2 3 4t3 4h2h2zM588 1397l155 -78 v-2l-436 -219l-160 80z" />
<glyph unicode="Q" d="M788 659l91 136l364 182l80 -41v-459l-41 -63v-6q0 -8 5 -11.5t11.5 -6.5t11.5 -6t5 -9v-2l-74 -113h-4h-4q-4 2 -17.5 8t-15.5 6h-2q-8 0 -14 -6q-2 -2 -8.5 -11t-12.5 -19.5t-12 -18.5t-8 -10q0 -4 -4 -4l-271 -137l-80 41v550zM446 133q-12 0 -22 -8t-25 -8l-4 2 l-266 133l-90 133v551l80 41l368 -184l86 -131v-457q0 -4 -6 -7t-14 -6.5t-14.5 -8.5t-6.5 -13v-6l35 -53v-2q0 -2 -2 -3.5t-2 -3.5l-59 -28h-2q-6 0 -12.5 9t-12.5 20.5t-13.5 20.5t-17.5 9zM627 201h2q6 0 17 -17.5t16 -27.5v-2v-2l-68 -33l-4 2q-4 6 -15.5 23.5 t-15.5 21.5zM692 233v457l70 -35v-534l-68 35q-2 0 -4 3t-4 5q-6 10 -17.5 26.5t-11.5 18.5v6zM668 688v-438l-68 -35v440zM952 283q0 -4 4 -4h7h4l98 49v4q0 12 -13.5 18t-21.5 10v9l76 112h2h2q4 -2 17.5 -8t14.5 -6t3 -1t4 -1h6t4 4v293q0 4 -4 4h-6h-6l-191 -96v-387z M1028 336l-53 -27v51zM305 324h2q10 0 10 12q0 6 -2 6l-36 59l71 35q4 -6 20.5 -29.5t20.5 -29.5l4 -4h4h7q4 0 4 4v293l-191 96h-6q-8 0 -8 -4v-387zM244 383h2q0 4 6 4h2q4 0 8 -6t6 -8v-2v-2l-22 12h-2v2zM1085 494l-75 -113l-4 -4h-2h-3q-4 0 -11 4t-11 6l-4 4v158z M387 655v-172l-160 -80v332zM387 455v-29l-14 20zM975 655l162 80v-239l-162 82v77zM512 799l156 78v-160l-76 -37zM694 877l154 -78v-4l-4 -7q-6 -10 -17.5 -27.5t-22.5 -33.5t-28 -41l-6 -6l-76 37v160zM307 1069l346 -172l-159 -80l-347 174zM1055 1069l159 -78 l-346 -174l-159 80zM598 1042q0 4 -4 5h-6h-6l-88 -43l-158 79l332 168v-333l-70 34v90zM1028 1083l-160 -79l-88 43h-4h-8q-4 0 -4 -5v-90l-70 -34v333zM92 991l-53 -26v51zM573 1016v-51l-51 26zM840 991l-52 -26v51zM1323 1016v-51l-53 26zM47 1042l1 4q1 3 3 5 q2 6 12.5 20t20.5 29.5t20.5 30t14.5 20.5q0 2 3 4t3 4h2h2l150 -76l-160 -79l-68 34l-4 4v0zM1239 1161l76 -114v-3v-2l-2 -4l-70 -34l-160 79zM494 1350l159 -78l-346 -174l-160 80zM868 1350l346 -172l-159 -80l-346 174z" />
<glyph unicode="R" d="M412 389l-193 96h-12q-4 0 -4 -4v-266l-164 80v721l448 -223l86 -131v-179l-81 -43q-8 -6 -9 -12q0 -2 4 -10l86 -131v-258l-161 82v278zM668 315v-254l-68 -32v252zM692 342l-80 121q-2 2 -4 6q0 4 4 4l78 41v203l-65 100l137 -67v-721l-70 32v281zM1243 977l80 -41 v-178l-86 -131q-4 -4 -4 -11q0 -6 8 -12l82 -43v-266l-162 -80v266q0 4 -6 4h-6h-6l-193 -96v-278l-162 -82v721zM387 375v-80l-160 -80v240zM975 375l162 80v-240l-162 80v80zM512 424l70 35l8 -8q2 -2 13 -19.5t27.5 -42t26.5 -39.5q0 -4 5 -8v-2v-2l-70 -33zM668 688 v-158l-68 -34v159zM395 559h4h7q4 0 4 4v107l-191 96h-6q-8 0 -8 -4v-107zM952 563q0 -4 4 -4h7h4l192 96v107q0 4 -4 4h-6h-6l-191 -96v-107zM246 664l61 32l80 -41v-65l-141 72v2zM1055 696l63 -32v-2l-143 -72v65zM1323 713v-123l-61 31zM512 799l70 35l8 -9 q2 -2 13 -19.5t27.5 -42t26.5 -38.5q0 -4 5 -8v-2v-2l-70 -33zM279 709l-52 -25v51zM1137 735v-51l-54 25zM618 852l437 217l159 -78l-440 -221l-156 78v4zM57 1038l156 78l440 -219l-159 -80l-437 217v4zM598 1042q0 4 -4 5h-6h-6l-88 -43l-158 79l332 168v-333l-70 34v90z M1028 1083l-160 -79l-88 43h-4h-8q-4 0 -4 -5v-90l-70 -34v333zM573 1016v-51l-51 26zM840 991l-52 -26v51zM1182 1038l141 72v-145l-141 69v4zM868 1350l437 -217v-5l-156 -77l-440 221zM129 1159l53 -26v-5l-119 -59l56 82q0 2 3 4t3 4h2h2zM588 1397l155 -78v-2 l-436 -219l-160 80z" />
<glyph unicode="S" d="M692 141v80l70 -35v-157l-146 71zM1159 375v106q0 4 -4 4h-6h-6l-275 -135l-80 39v270l91 136l444 221v-158l-371 -188v-107q0 -4 4 -4h7h4l276 137l80 -41v-272l-88 -131l-447 -223v157zM39 455l356 -176h4h7q4 0 4 4v106l-281 143l-90 134v270l80 41l454 -227v-160 l-354 176h-6q-8 0 -8 -4v-107l282 -143l86 -131v-272l-79 -41l-455 227v160zM682 416l80 -41v-78l-92 -49v-92l-70 -35v254zM786 283v77l82 -36l187 90l63 -31v-2l-344 -172l-65 33zM57 477l62 31l268 -133v-66l-330 164v4zM512 518l70 35l8 -8q2 -2 13 -19.5t27.5 -42 t26.5 -39.5q0 -4 5 -8v-2v-2l-70 -33zM612 555q-2 2 -3 5t0 5t3 2l80 41v82l70 -35v-252l-72 35zM1137 455v-52l-54 25zM39 621q4 -4 10 -14.5t14.5 -23t17.5 -25.5t15 -21l2 -7v-2v-2l-59 -30v125v0zM246 664l61 32l248 -125v-4l-61 -30l-248 125v2zM731 815h4q0 -8 -4 -8 q-2 -4 -9 -15.5t-16.5 -25.5t-17.5 -26.5t-12 -18.5q-2 -2 -3 -4t-3 -4v-90l-70 -33v160zM1149 741l65 -32l-239 -119v65zM780 834l68 -35v-4l-4 -7q-6 -10 -17.5 -27.5t-22.5 -33.5t-28 -41l-6 -6l-70 35zM279 709l-52 -25v51zM1182 758l141 71v-65l-80 -41l-61 31v4z M307 1069l436 -217v-4l-155 -78l-441 221zM1149 1116l156 -78v-4l-437 -217l-159 80zM598 1042q0 4 -4 5h-6h-6l-88 -43l-158 79l334 168v-174l75 -41l-75 -39v-82l-72 37v90zM743 946v-4l-49 -24v51zM774 1024l66 -33l-66 -33l-65 33zM182 1038v-4l-143 -69v145zM573 1016 v-51l-51 26zM694 1251l334 -168l-160 -79l-174 88v159zM57 1133l437 217l159 -78l-440 -221l-156 77v5zM1182 1133l51 26h8q2 -2 10.5 -15.5t21.5 -32.5t19 -32q2 0 4 -6h-4l-110 55v5zM618 1319l156 78l440 -219l-159 -80l-437 219v2z" />
<glyph unicode="T" d="M225 762l-186 96v158l534 -266v-160l-167 82h-5h-8q-4 0 -4 -4v-547l-164 82v559zM573 561v-358l-159 -82v522zM788 561l160 82v-522l-160 82v358zM956 672l-168 -82v160l535 266v-158l-184 -96v-559l-166 -82v547q0 4 -6 4h-6h-5zM668 782v-159l-68 -33v160zM694 782 l68 -32v-160l-68 33v159zM57 1038l62 31h190l359 -180v-78l-80 -41l-531 264v4zM694 889l359 180h192l60 -31v-4l-531 -264l-80 41v78zM668 1251v-159l-93 -50v-77l-239 118zM694 1092v159l334 -168l-242 -118v77zM92 1083l-53 -26v53zM1323 1110v-53l-53 26zM57 1133 l531 264l80 -39v-80l-367 -182h-176l-68 32v5zM694 1358l80 39l531 -264v-5l-68 -32h-176l-367 182v80z" />
<glyph unicode="U" d="M39 385v631l164 -80v-561l192 -96h4h7q6 0 6 4v546l161 -79v-641l-79 -41l-365 184zM788 750l162 79v-546q0 -4 4 -4h9h4l194 96v561l162 80v-633l-88 -131l-367 -184l-80 41v641zM668 782v-626l-68 -35v629zM694 782l68 -32v-629l-68 35v626zM246 383l141 72v-146 l-141 72v2zM1118 383v-2l-143 -72v146zM387 1016v-533l-160 -80v533zM975 1016l162 -80v-533l-162 80v533zM432 852l156 78l80 -41v-78l-80 -41l-156 78v4zM694 889l80 41l156 -78v-4l-156 -78l-80 41v78zM573 1217v-267l-159 -80v426zM788 1217l160 79v-426l-160 80v267z M600 1217l68 34v-333l-68 32v267zM762 1217v-267l-68 -32v333zM57 1038l62 31h190l60 -31v-4l-156 -76l-156 76v4zM993 1038l60 31h192l60 -31v-4l-156 -76l-156 76v4zM92 1083l-53 -26v53zM387 1110v-53l-51 26zM1028 1083l-53 -26v53zM1323 1110v-53l-53 26zM57 1133 l156 77l156 -77v-5l-68 -32h-176l-68 32v5zM993 1133l156 77l156 -77v-5l-68 -32h-176l-68 32v5zM432 1319l156 78l80 -39v-80l-80 -39l-156 78v2zM694 1358l80 39l156 -78v-2l-156 -78l-80 39v80z" />
<glyph unicode="V" d="M223 203l-180 811l160 -80l90 -404q2 -4 5 -12t9 -8l2 2q2 0 4 1t93 308q0 2 2 5t4 3h2l159 -79l-178 -625q-4 -2 -4 -4h-2h-2zM791 750l157 79h2h2q2 0 3 -2t92 -309q4 -6 6 -6l2 -2q10 0 14 16l90 400q0 6 6 12l154 78l-180 -811l-164 -84h-2h-2q0 2 -2 3t-178 626z M784 203l-90 319v260l72 -34l176 -623zM424 141l174 607l70 34v-264l-90 -313l-154 -78v14zM227 936l160 80h2h2l4 -6l27 -121v-15q-4 -2 -13.5 -7t-13.5 -7l-4 -4l-82 -285zM942 874v11q0 4 5 24.5t11.5 50t8.5 46.5q2 2 3 6t3 4h2l158 -78v-18l-78 -349l-84 285l-4 4 q-2 2 -11.5 7t-13.5 7zM432 848v4l156 78l80 -41v-78l-80 -41zM694 811v78l80 41l156 -78v-4l-156 -78zM418 1028l37 -131v-2v-2q-2 -4 -4 -4h-2h-3q0 2 -1 5t-1 7q-4 12 -8 31.5t-8 38t-7 32t-3 25.5zM907 893l37 131v-12l-24 -115q-4 -4 -5 -8h-2h-2q-2 0 -3 1zM477 907 l-67 230l-4 4q-4 2 -13.5 7t-13.5 7v10q0 4 4 24.5t11 50.5t12 46q2 2 3 6t3 6l2 -2l157 -77v-19l-61 -270q0 -12 -6 -15q-4 -4 -13.5 -8t-13.5 0zM788 1217l160 79l2 2l2 -2l4 -6l27 -121v-14q-4 -2 -13 -7t-14 -7l-4 -4l-67 -234h-2h-2q-2 2 -10.5 6t-12.5 6l-2 5z M588 956l-51 -24l59 276q2 2 4 5.5t4 5.5l64 32v-333zM694 1251l70 -37l63 -280h-6l-47 22l-80 -38v333zM57 1034v4l62 31h190l60 -31v-4l-156 -76zM993 1034v4l60 31h192l60 -31v-4l-156 -76zM336 1083l51 27h2h2q4 -2 4 -4q2 -6 7.5 -26.5t7.5 -24.5v-4v-4zM973 1110h2 l53 -27l-76 -36v2v2q2 4 5.5 19t7.5 22q0 2 2 10t6 8zM47 1104v2l45 -23q-4 -2 -15 -7t-16 -7h-2h-2q-2 6 -4 8q0 2 -3 11.5t-3 13.5v2zM1270 1083l45 23v-2q0 -4 -4 -19.5t-8 -15.5h-3q-4 2 -15 7t-15 7zM57 1128v5l156 77l156 -77v-5l-68 -32h-176zM993 1128v5l156 77 l156 -77v-5l-68 -32h-176zM432 1317v2l156 78l80 -39v-80l-80 -39zM694 1278v80l80 39l156 -78v-2l-156 -78z" />
<glyph unicode="W" d="M324 324q-4 8 -6.5 14t-10.5 6q-6 0 -8 -2l-6 -6l-84 -125l-170 84v721l164 -80v-373q0 -4 4 -4h6q8 0 14 8l78 115l82 -205q6 -12 12 -12h7q6 0 6 4v360l161 -79v-721l-163 82zM668 782v-721l-68 -32v721zM694 782l68 -32v-721l-68 32v721zM950 829v-360q0 -4 4 -4h9 q8 0 10 6t6 14l80 199l80 -121q4 -4 10 -4h6q6 0 6 4v373l162 80v-721l-170 -84l-80 121q-6 8 -8 10t-8 2q-12 0 -15 -12l-88 -221l-166 -82v721zM305 305q4 -8 9 -18.5t5 -20.5q0 -2 -1 -4t-3 -2l-59 -31h-4q2 4 8 14.5t14.5 20.5t14.5 19.5t8 13.5q2 2 4 5t4 3zM1042 268 q4 8 15 37h4q2 -2 9 -13t18.5 -27.5t14.5 -21.5t5 -8.5t2 -5.5h-4l-59 31q-2 0 -5 4v2v2zM328 707l59 28v-194q-4 8 -12 29.5t-17.5 45t-18.5 45t-11 29.5q-2 4 -4 12zM1034 707l4 -5v-2v-2q-4 -8 -12 -29.5t-17.5 -45t-18.5 -45t-11 -29.5q0 -2 -2 -4t-2 -4v194zM387 1016 v-252l-88 -47l-72 -107v326zM975 764v252l162 -80v-324l-72 105zM432 852l156 78l80 -41v-78l-80 -41l-156 78v4zM694 889l80 41l156 -78v-4l-156 -78l-80 41v78zM473 987l4 -4v-2v-2l-37 -94l-4 -2q-4 -2 -11 -6.5t-11 -6.5v146zM889 987l59 29v-146q-16 4 -20 9.5t-8 17.5 q-2 2 -6.5 12.5t-8.5 22.5t-9 22.5t-7 16.5q-2 4 -4 12zM498 965q25 -39 23.5 -40t-3.5 -1q-4 -4 -22.5 -12.5t-22.5 -10.5v2zM844 926q0 10 7 19t15 16q8 -12 15.5 -27.5t7.5 -30.5v-2l-45 23v2v0zM600 1217l68 34v-333l-68 32v267zM762 1217v-267l-68 -32v333zM414 1296 l159 -79q0 -264 -1 -265.5t-1 -3.5q-4 -2 -12 -5t-10 -5h-2h-2q-4 6 -17.5 24.5t-17.5 24.5q-2 2 -7 8t-7 6l-82 43v252zM948 1296v-252l-82 -43q-6 -4 -13 -14t-13 -21.5t-12.5 -19.5t-12.5 -8h-2q-2 2 -10 5t-10 5l-5 4v265zM57 1038l62 31h190l60 -31v-4l-156 -76 l-156 76v4zM993 1038l60 31h192l60 -31v-4l-156 -76l-156 76v4zM92 1083l-53 -26v53zM387 1110v-53l-51 26zM1028 1083l-53 -26v53zM1323 1110v-53l-53 26zM57 1133l156 77l156 -77v-5l-68 -32h-176l-68 32v5zM993 1133l156 77l156 -77v-5l-68 -32h-176l-68 32v5zM432 1319 l156 78l80 -39v-80l-80 -39l-156 78v2zM694 1358l80 39l156 -78v-2l-156 -78l-80 39v80z" />
<glyph unicode="X" d="M694 61v271q2 8 4 10q8 23 22.5 58.5t28 68.5t22.5 56.5t17 23.5l156 -80h2q0 -2 -2 -2q0 -2 -1 -6t-1 -6l-172 -430zM416 469l157 80h5q6 0 8 -8l82 -205v-275l-68 -32h-4q-4 0 -6 6zM410 111l-86 213q-4 8 -6.5 14t-10.5 6q-6 0 -8 -2l-6 -6l-84 -125l-158 80 q-4 0 -4 4q2 4 4 6l168 254q4 8 4 14q0 4 -4 17l-170 426l156 -78l86 -213q0 -4 5 -13.5t11 -9.5h2q2 0 4 2t93 134l157 -80l4 -2v-2v-2l-176 -267v-4q0 -6 4 -18l168 -426zM799 35l172 432v6v8l-4 8l-168 254q0 2 -2 4.5t-2 4.5l4 2l159 80l84 -125q2 0 5.5 -4.5t5.5 -6.5 h2q10 0 14 11l86 215q4 12 10 14l148 74l-176 -445l178 -270v-2q0 -2 -1 -3t-161 -81l-80 121q-6 8 -8 10t-8 2q-12 0 -15 -12l-88 -221zM305 305q4 -8 9 -18.5t5 -20.5v-2q-2 -4 -4 -4l-59 -31h-4q2 4 9 14.5t14.5 20.5t13.5 19.5t8 13.5q2 2 4 5t4 3zM1042 266v2 q4 8 9.5 22.5t9.5 14.5q2 -2 9 -13t18.5 -27.5t17.5 -26.5q4 -6 4 -9h-4l-59 31q-2 0 -3.5 2t-1.5 4zM43 387l4 12l105 263q2 4 4 6l4 4l37 -94v-5q0 -6 -4 -14l-119 -178l-4 -4h-2h-2q-4 2 -9 4zM1165 571q0 4 1 7.5t3 7.5l6.5 13t8.5 24q12 29 16 39t6 10l113 -281v-4 q-16 -8 -23 -10h-2h-2l-127 190v4zM596 748l72 34v-71l-88 -131l-142 -72zM604 565v6l64 95v-136l-37 -18l-2 -2q-4 0 -8.5 8t-8.5 18.5t-6 18.5t-2 10zM694 530v138l68 -101l-25 -59zM784 578l-90 135v69l74 -37l156 -233h-4zM920 885v4q0 10 2 14q6 16 17 44t18.5 47.5 t9.5 21.5h8l158 -78v-2v-2q0 -2 -2.5 -5t-2.5 -5q-4 -10 -15 -37t-23.5 -57.5t-22.5 -57.5t-14 -37l-78 117q0 2 -3 4t-5 4q-4 4 -23.5 13.5t-23.5 11.5zM229 938l158 78l4 2q4 0 4 -2t4 -6q6 -16 17.5 -44t18.5 -47.5t9 -21.5v-12q-6 -2 -25.5 -11.5t-23.5 -13.5l-4 -4 l-78 -117h-2h-2q-4 6 -4 9zM432 848v4l156 78l80 -41v-78l-80 -41zM694 811v78l80 41l156 -78v-4l-156 -78zM336 1083l61 31l84 -123q0 -2 4 -6t7 -6h2q8 0 14 12l86 213q4 12 10 15l64 32v-168q-2 -8 -4 -10q-4 -8 -11.5 -25.5t-14.5 -36t-12 -32.5t-8 -18q0 -2 -3 -7.5 t-3 -7.5q-16 6 -24 6h-6l-109 -51h-4l-4 8t-12 29q-8 25 -21.5 57.5t-17.5 38.5q-8 12 -78 49zM774 952q-10 0 -24 -6l-2 6q-8 18 -21.5 51t-22 54.5t-10.5 25.5v168l72 -37l86 -213q0 -4 5 -13t11 -9h2q2 0 4.5 2t4.5 2l88 131l61 -31l-74 -39l-57 -141l-4 -2h-2h-2 l-109 51h-6zM57 1034v4l62 31h190l60 -31v-4l-156 -76zM993 1034v4l60 31h192l60 -31v-4l-156 -76zM356 1165v4q0 4 1 7.5t3 9.5q6 16 17.5 43.5t18.5 46t10 20.5h8l157 -77v-2v-3q-4 -4 -4 -10q-4 -10 -15 -36.5t-23.5 -57.5t-22.5 -57.5t-14 -36.5l-78 117l-8 8 q-4 4 -24 13t-26 11zM791 1219l157 77l4 2q4 0 4 -2t5 -6q6 -16 17 -43.5t18.5 -47t9.5 -21.5v-13q-6 -2 -25.5 -11t-24.5 -13q0 -2 -2 -3t-80 -118h-2h-2q-4 6 -4 8zM57 1128v5l156 77l156 -77v-5l-68 -32h-176zM993 1128v5l156 77l156 -77v-5l-68 -32h-176zM432 1317v2 l156 78l80 -39v-80l-80 -39zM694 1278v80l80 39l156 -78v-2l-156 -78z" />
<glyph unicode="Y" d="M225 575l-6 11l-170 426l156 -78l86 -213q0 -4 5 -13.5t11 -9.5h2q2 0 6 4l91 132l157 -80l4 -2v-2v-2l-178 -267v-360l-164 82v372zM573 549v-346l-159 -82v348zM788 549l160 -80v-348l-160 82v346zM967 489l-168 254q0 2 -2 4.5t-2 4.5l4 2l159 80l84 -125 q2 0 5.5 -4.5t5.5 -6.5h2q10 0 14 11l86 215l4 8t6 6l148 74l-174 -437v-372l-166 -82v360zM668 782v-71l-88 -131l-142 -72l158 240zM694 713v69l74 -37l156 -233h-4l-136 66zM920 889q0 8 2 14q6 16 17 44t18.5 47.5t9.5 21.5h8l158 -78v-2v-2q0 -2 -2.5 -5t-2.5 -5 q-4 -10 -14 -37t-22.5 -57.5t-23.5 -57.5t-15 -37l-78 117q0 2 -3 4t-5 4q-4 4 -23.5 13.5t-23.5 11.5v4zM387 1016l4 2q4 0 4 -2t4 -6q6 -16 17.5 -44t18.5 -47.5t9 -21.5v-12q-6 -2 -25.5 -11.5t-23.5 -13.5l-4 -4l-78 -117h-2q-2 0 -4 3t-2 6l-76 190zM432 852l156 78 l80 -41v-78l-80 -41l-156 78v4zM694 889l80 41l156 -78v-4l-156 -78l-80 41v78zM397 1114l84 -123q0 -2 4 -6t7 -6h2q8 0 14 12l86 213q2 4 4 8.5t6 6.5l64 32q0 -168 -1 -172t-3 -6q-4 -8 -10.5 -25.5t-13.5 -36t-13 -32.5t-9 -18q0 -2 -3 -7.5t-3 -7.5q-16 6 -24 6h-6 l-109 -51q-4 0 -6 5t-4 9.5t-9.5 22.5t-15.5 37.5t-15 37t-9 21.5q-6 10 -8 13l-70 36zM774 952q-10 0 -24 -6l-2 6q-8 18 -21.5 51t-22 54.5t-10.5 25.5v168l72 -37l86 -213q0 -4 5 -13t11 -9h2q2 0 4.5 2t4.5 2l88 131l61 -31l-74 -39l-57 -141l-4 -2h-2h-2l-109 51h-6v0z M57 1038l62 31h190l60 -31v-4l-156 -76l-156 76v4zM993 1038l60 31h192l60 -31v-4l-156 -76l-156 76v4zM356 1169q0 4 1 7.5t3 9.5q6 16 17.5 43.5t18.5 46t10 20.5h8l157 -77v-2v-3q-4 -4 -4 -10q-4 -10 -15 -36.5t-22.5 -57.5t-22.5 -57.5t-15 -36.5l-78 117l-8 8 q-4 4 -24 13t-26 11v4zM948 1296l4 2q4 0 4 -2t5 -6q6 -16 17 -43.5t18.5 -47t9.5 -21.5v-13q-6 -2 -25.5 -11t-24.5 -13q0 -2 -4 -4l-78 -117h-2q-2 0 -4 3t-2 5l-75 191zM57 1133l156 77l156 -77v-5l-68 -32h-176l-68 32v5zM993 1133l156 77l156 -77v-5l-68 -32h-176 l-68 32v5zM432 1319l156 78l80 -39v-80l-80 -39l-156 78v2zM694 1358l80 39l156 -78v-2l-156 -78l-80 39v80z" />
<glyph unicode="Z" d="M39 469l315 203q0 2 4 6t7 6v2q0 8 -5 8l-321 164v158l534 -266v-175l-317 -206q-4 -4 -4 -13v-6l321 -164v-157l-534 266v174zM668 221v-160l-68 -32v157zM694 221l68 -35v-157l-68 32v160zM1102 709l12 22q0 2 -2 4t-2 4l-4 4h-2h-2q-2 0 -10 -4l-304 -149v160l535 266 v-166l-322 -531v-6q0 -12 9 -12h2l311 154v-160l-535 -266v164zM446 438l162 -80q4 -4 1 -10l-5 -10q-4 -4 -13 -21.5t-13 -21.5v-6q0 -8 4 -10l71 -37l-65 -33l-299 149zM608 297l158 260h14l285 143v-6l-295 -483l-158 80q-4 0 -4 4v2zM1128 481q10 -16 21 -16q2 0 6 2 l88 41l62 -31v-4l-254 -127h-4q0 2 3 7t3 7q10 16 27.5 45t29.5 49.5t14 22.5l4 4v0zM477 453q0 2 1 4t3 2l187 119v-48l-172 -86h-2h-2q-2 0 -7.5 3.5t-7.5 3.5v2zM1143 508l2 2t2 4l102 168l66 -104v-3q0 -2 -2 -4l-158 -79l-4 4q-2 4 -5 7t-3 5zM1323 549v-53l-53 26z M39 549q4 -2 18.5 -9.5t18.5 -9.5q2 0 3 -2t0 -4t-3 -2l-33 -22h-4v49v0zM743 571v-2q0 -12 -10 -26.5t-20 -20.5h-2h-2q-4 2 -9.5 4t-5.5 4v66zM57 571l248 123h2h2q8 0 19 -10l-209 -135q-6 -4 -13 -4h-4l-45 22v4zM668 782v-159l-68 -33v160zM694 782l68 -32v-152 q0 -4 -4 -4h-2h-2l-60 29v159zM57 1038l62 31h190l359 -180v-78l-80 -41l-531 264v4zM694 889l359 180h192l60 -31v-4l-531 -264l-80 41v78zM653 1055l1 1q1 1 3 1q4 4 17.5 10t17.5 10v174l336 -168l-160 -79l-43 20h-2q-10 0 -10 -10t6 -15.5t6 -13.5v-2l-98 -49h-6 q-2 2 -12.5 19.5t-24.5 44t-22 40.5q-2 2 -5.5 7.5t-3.5 9.5zM668 1251v-159l-174 -88l-158 79zM92 1083l-53 -26v53zM1323 1110v-53l-53 26zM57 1133l531 264l80 -39v-80l-367 -182h-176l-68 32v5zM694 1358l80 39l531 -264v-5l-68 -32h-176l-367 182v80z" />
<glyph unicode="^" d="M39 385v551l80 41l454 -227v-160l-354 176h-6q-8 0 -8 -4v-107l282 -143l86 -131v-272l-79 -41l-365 184zM788 659l91 136l444 221v-158l-371 -188v-107q0 -4 4 -4h7h4l276 137l80 -41v-272l-88 -131l-367 -184l-80 41v550zM668 408v-252l-68 -35v254zM692 436l-80 119 q-2 2 -3 5t0 5t3 2l80 41v82l70 -35v-534l-70 35v280zM395 279h4h7q4 0 4 4v106l-191 96h-6q-8 0 -8 -4v-106zM952 283q0 -4 4 -4h7h4l192 96v106q0 4 -4 4h-6h-6l-191 -96v-106zM246 383l61 33l80 -41v-66l-141 72v2zM1055 416l63 -33v-2l-143 -72v66zM512 518l70 35l8 -8 q2 -2 13 -19.5t27.5 -42t26.5 -39.5q0 -4 5 -8v-2v-2l-70 -33zM279 428l-52 -25v52zM1137 455v-52l-54 25zM246 664l61 32l248 -125v-4l-61 -30l-248 125v2zM731 815h4q0 -8 -4 -8q-2 -4 -9 -15.5t-16.5 -25.5t-17.5 -26.5t-12 -18.5q-2 -2 -3 -4t-3 -4v-90l-70 -33v160z M1149 741l65 -32l-239 -119v65zM780 834l68 -35v-4l-4 -7q-6 -10 -17.5 -27.5t-22.5 -33.5t-28 -41l-6 -6l-70 35zM279 709l-52 -25v51zM1182 758l141 71v-145l-141 70v4zM307 1069l436 -217v-4l-155 -78l-441 221zM1149 1116l156 -78v-4l-437 -217l-159 80zM598 1042 q0 4 -4 5h-6h-6l-88 -43l-158 79l334 168v-174l75 -41l-75 -39v-82l-72 37v90zM743 946v-4l-49 -24v51zM774 1024l66 -33l-66 -33l-65 33zM182 1038v-4l-143 -69v145zM573 1016v-51l-51 26zM694 1251l334 -168l-160 -79l-174 88v159zM57 1133l437 217l159 -78l-440 -221 l-156 77v5zM1182 1133l51 26h8q2 -2 10.5 -15.5t21.5 -32.5t19 -32q2 0 4 -6h-4l-110 55v5zM618 1319l156 78l440 -219l-159 -80l-437 219v2z" />
<glyph unicode="a" horiz-adv-x="1374" d="M393 270l-176 -86l-197 99v761l97 144l372 186h19l178 -86l176 86h21l372 -186l95 -141v-764l-197 -99l-176 86v-174l-199 -98l-92 45l-94 -45l-199 98v174zM578 31v633l-89 131l-366 184l-80 -41v-641l164 -80v266q0 4 4 4h6h6l193 -96v-280zM604 31l68 32v627l-68 -33 v-626zM766 31v626l-68 33v-627zM793 31l161 80v280l193 96h6h6q6 0 6 -4v-266l162 80v641l-80 41l-364 -182l-90 -135v-631zM229 217l162 80v80l-162 80v-240zM1141 217v240l-162 -80v-80zM207 764q0 4 4 4h6h6l191 -96v-107q0 -4 -4 -4h-7h-4l-192 96v107zM1147 768h6h6 t4 -4v-107l-192 -96h-4h-6t-5 4v107zM391 592v65l-80 41l-61 -32v-2zM979 592l143 72v2l-63 32l-80 -41v-65zM672 719v160l-156 -78l80 -119zM774 682q6 6 14.5 18.5t19.5 28.5t22.5 33.5t17.5 28.5q4 0 4 8v2l-154 78v-160zM229 686l54 25l-54 26v-51zM1141 686v51l-54 -26 zM498 819l159 80l-346 172l-159 -78zM872 819l347 174l-160 78l-346 -172zM672 920v333l-334 -168l160 -79l88 43h10q6 0 6 -5v-90zM698 920l70 34v90q0 4 4 5h8h4l88 -43l160 79l-334 168v-333zM43 967l53 26l-53 25v-51zM578 967v51l-52 -25zM793 967l51 26l-51 25v-51z M1327 967v51l-51 -25zM51 1044l1 -1t1 -3l70 -34l160 79l-150 76h-2h-2l-8 -8q-4 -6 -13.5 -20.5t-20.5 -30t-20.5 -29.5t-13.5 -20q0 -3 -2 -9zM1247 1006l70 34q0 4 4 4v3v2l-78 114l-156 -78zM311 1100l346 174l-159 80l-346 -174zM1059 1100l160 80l-347 174l-159 -80z " />
<glyph unicode="b" horiz-adv-x="1374" d="M498 43l-478 240v761l97 144l475 237l186 -90l84 39h21l467 -233v-389l-84 -129l84 -45v-201l-95 -141l-477 -238l-186 90zM766 31v721l-137 67l65 -100v-203l-78 -41q-4 0 -4 -2t1 -4t3 -4l78 -121v-203l-73 -39zM793 31l446 223l88 131v178l-82 43q-8 6 -8 12t4 11 l86 131v178l-80 41l-454 -227v-721zM498 70l80 41v178l-86 131l-5 10q0 6 9 12l82 43v179l-89 131l-446 223v-721zM604 123l68 35v159l-68 -34v-160zM207 483q0 4 4 4h6h6l191 -96v-106q0 -4 -4 -4h-7h-4l-192 96v106zM1147 487h6h6t4 -4v-106l-192 -96h-4h-6t-5 4v106z M666 340v2v2q-4 4 -4 8q-10 14 -27 39t-28 42.5t-13 19.5l-8 8l-70 -35l80 -119zM391 311v66l-80 39l-61 -31v-2zM979 311l143 72v2l-63 31l-80 -39v-66zM229 403l54 27l-54 27v-54zM1141 403v54l-54 -27zM604 498l68 34v158l-68 -33v-159zM207 764q0 4 4 4h6h6l191 -96 v-107q0 -4 -4 -4h-7h-4l-192 96v107zM1147 768h6h6t4 -4v-107l-192 -96h-4h-6t-5 4v107zM391 592v65l-80 41l-61 -32v-2zM979 592l143 72v2l-63 32l-80 -41v-65zM666 715v2v2q-4 4 -4 8q-10 14 -27 39t-28 42t-13 19l-8 9l-70 -35l80 -119zM229 686l54 25l-54 26v-51z M1141 686v51l-54 -26zM778 772l441 221l-160 78l-436 -217v-4zM498 819l159 80l-440 219l-156 -78v-2zM672 920v333l-334 -168l160 -79l88 43h10q6 0 6 -5v-90zM698 920l70 34v90q0 4 4 5h8h4l88 -43l160 79l-334 168v-333zM578 967v51l-52 -25zM793 967l51 26l-51 25v-51z M1327 967v145l-141 -72v-2zM1153 1053l156 77v5l-437 219l-159 -80zM129 1161l-8 -8l-53 -82l116 59v5l-51 26h-2h-2zM311 1100l437 219v4l-156 76l-440 -219z" />
<glyph unicode="c" horiz-adv-x="1374" d="M20 377v665l97 144l372 186h19l178 -86l176 86h21l372 -186l95 -142v-669l-95 -142l-383 -190l-186 90l-188 -90l-381 190zM498 68l80 41v172l-162 81v-79q0 -4 -6 -4h-7h-4l-192 96v387q0 4 4 4h6h6l193 -96v-92l162 -82v166l-89 131l-366 184l-80 -41v-551l90 -133z M872 68l367 184l88 133v164l-162 -82v-92l-194 -96h-4h-6t-5 4v387l191 96h6h6q6 0 6 -4v-78l162 80v172l-80 41l-364 -182l-90 -136v-550zM604 123l68 33v159l-68 -34v-158zM766 123v532l-70 35v-174l-92 -47v-80l92 -47v-186zM592 303l65 33l-77 39v80l-144 -70v-4z M393 309v80l76 39l-66 33l-153 -76v-4zM979 309l143 72v4l-143 70v-146zM229 403l162 80v172l-162 80v-332zM1141 403v66l-162 80v-66zM498 442l61 31v4l-141 72v-66zM1153 489l156 78v4l-62 31l-94 -45l-94 45l-62 -31v-4zM604 496l68 34v160l-68 -35v-159zM979 590l72 35 h18l72 -35v65l-82 41l-80 -41v-65zM1167 590l70 35h18l72 -35v145l-160 -80v-65zM672 717v160l-156 -78l80 -119zM774 680q6 8 14.5 19.5t19.5 27.5t22.5 33.5t17.5 27.5q4 4 4 9v2v2l-154 76v-160zM1141 684v51l-54 -24zM498 817l159 80l-346 174l-159 -80zM872 817 l347 174l-160 80l-346 -174zM686 911l66 33l-78 41v266l-336 -168l160 -77l88 41h10q6 0 6 -5v-90zM43 965l53 26l-53 27v-53zM578 965v53l-52 -27zM768 965v77q0 4 4 5h8h4l88 -41l160 77l-334 168v-254zM793 965l51 26l-51 27v-53zM1327 965v53l-51 -27zM53 1040l70 -34 l160 77l-150 76h-2h-2q-2 0 -4 -3t-4 -5q-4 -6 -13.5 -20.5t-20.5 -30t-20.5 -29.5t-13.5 -20q0 -2 -1 -4.5t-1 -4.5zM1247 1006l71 35.5t3 0.5v2v3l-78 114l-156 -78zM311 1098l346 174l-159 80l-346 -174zM1059 1098l160 80l-347 174l-159 -80z" />
<glyph unicode="d" horiz-adv-x="1374" d="M580 176l-177 -86l-383 193v764l97 49l92 139l383 190l199 -98v-80l176 86l383 -192v-764l-95 -49l-92 -140l-385 -190l-198 98v80zM766 31v721l-162 79v-69l90 -137v-389l-90 -48v-77zM793 31l354 176l180 272v365l-174 88l-360 -180v-721zM403 117l175 88v364l-181 273 l-354 176v-721zM604 217l68 35v346l-68 -35v-346zM1051 719h18l94 -47v-203l-94 -139l-98 -49h-4h-6t-5 4v387zM979 311l53 27l-53 24v-51zM207 764q0 4 4 4h6h6l96 -49l95 -139v-203l-103 -51l-104 51v387zM311 350l80 41v66l-141 -72v-2zM1057 352l76 117v2q0 4 -5 4 l-149 76v-160zM1327 434q-4 -6 -18.5 -27.5t-18.5 -27.5q0 -2 -2 -4t-2 -4q4 2 18.5 9t18.5 9q2 0 4 4v41v0zM229 403l162 82v84l-88 131l-74 37v-334zM1141 498v159l-82 41l-80 -41v-77zM666 623v2q-4 4 -4 8l-80 121q0 104 2 105t2 3l17 8.5t18 10.5q-4 8 -18.5 28.5 t-16.5 20.5q-158 -80 -160 -81t-2 -3l4 -6l168 -252zM778 772l344 172v4l-155 78l-344 -172v-4zM403 866l156 78v4l-342 170l-156 -78v-2zM1327 872v240l-160 -80v-80zM602 950q10 -10 20.5 -32.5t22.5 -22.5h4q6 2 15.5 6t9.5 6v279l92 49v65l-352 -176l-37 -57l121 -61 l88 43h10q6 0 6 -5v-94v0zM698 920l269 131l174 -84v65l-363 180l-80 -41v-251zM578 967v51l-52 -25zM1153 1053l156 77v5l-342 172l-156 -78v-4zM354 1079l29 45v2q0 2 -2 4l-158 80q-4 -4 -10 -14t-14.5 -22.5t-17.5 -25.5t-12 -17.5t-4 -7.5t-3 -3l55 25zM403 1147 l345 172v4l-156 76l-342 -170v-4z" />
<glyph unicode="e" horiz-adv-x="1374" d="M20 1141l572 284l94 -45l92 45l572 -284v-858l-572 -285l-92 45l-94 -45l-572 285v858zM578 31v157l-371 189v106q0 4 4 4h6h6l355 -176v158l-371 188v107q0 4 4 4h6h6l355 -176v160l-535 266v-721zM604 31l68 32v160l-68 -35v-157zM766 31v721l-70 34v-176l-75 -39 l73 -39v-202l-73 -39l75 -41v-187zM793 31l534 266v160l-356 -176h-4h-6t-5 4v106l371 189v157l-356 -176h-4h-6t-5 4v107l371 188v158l-534 -266v-721zM592 211l65 33l-346 172l-61 -31v-2zM604 311l68 33v160l-68 -35v-158zM979 311l330 164v4l-62 31l-268 -133v-66z M229 403l54 27l-54 27v-54zM592 492l65 32l-346 174l-61 -32v-2zM1327 498v53l-51 -27zM604 592l68 33v159l-68 -32v-160zM979 592l330 164v4l-62 31l-268 -134v-65zM229 686l54 25l-54 26v-51zM592 772l80 41v78l-359 180h-192l-60 -31v-2zM778 772l531 266v2l-60 31h-190 l-361 -180v-78zM1327 778v53l-51 -26zM674 918v81l76 39l-76 41v174l-336 -168l160 -79l88 43h10q6 0 6 -5v-90zM698 920l50 24v4l-50 25v-53zM778 961l66 32l-66 33l-65 -33zM578 967v51l-52 -25zM872 1006l160 79l-334 168v-159zM43 1061l53 24l-53 27v-51zM1327 1061v51 l-51 -27zM129 1098h176l367 182v80l-80 39l-531 -264v-5zM1065 1098h176l68 32v5l-531 264l-80 -39v-80z" />
<glyph unicode="f" horiz-adv-x="1374" d="M580 283l-164 79v-77l-199 -101l-197 99v858l572 284l94 -45l92 45l572 -284v-764l-197 -98l-176 83v-266l-199 -98l-198 98v187zM766 31v721l-70 34v-176l-75 -39l73 -39v-202l-90 -47v-172zM793 31l161 80v280l373 189v157l-356 -176h-4h-6t-5 4v107l371 188v158 l-534 -266v-721zM207 217v266q0 4 4 4h6h6l355 -176v158l-371 188v107q0 4 4 4h6h6l355 -176v160l-535 266v-721zM229 217l162 80v80l-162 80v-240zM604 311l68 33v160l-68 -35v-158zM1141 311v146l-144 -72v-2zM1167 311l160 80v160l-160 -82v-158zM592 492l65 32l-346 174 l-61 -32v-2zM604 592l68 33v159l-68 -32v-160zM979 592l330 164v4l-62 31l-268 -134v-65zM229 686l54 25l-54 26v-51zM592 772l80 41v78l-359 180h-192l-60 -31v-2zM778 772l531 266v2l-60 31h-190l-361 -180v-78zM1327 778v53l-51 -26zM674 918v81l76 39l-76 41v174 l-336 -168l160 -79l88 43h10q6 0 6 -5v-90zM698 920l50 24v4l-50 25v-53zM778 961l66 32l-66 33l-65 -33zM578 967v51l-52 -25zM872 1006l160 79l-334 168v-159zM43 1061l53 24l-53 27v-51zM1327 1061v51l-51 -27zM129 1098h176l367 182v80l-80 39l-531 -264v-5zM1065 1098 h176l68 32v5l-531 264l-80 -39v-80z" />
<glyph unicode="g" horiz-adv-x="1374" d="M20 377v762l469 233h19l84 -39l186 90l477 -237l95 -142v-200l-74 -41l74 -39v-389l-95 -142l-383 -190l-186 90l-188 -90l-381 190zM498 68l80 41v360l-254 127v-160l90 -47v-106q0 -4 -4 -4h-7h-4l-192 96v387q0 4 4 4h6h6l355 -176v160l-455 227l-80 -41v-551l90 -133 zM872 68l367 184l88 133v350l-254 -127v-157l74 34h6h6t4 -4v-106l-192 -96h-4h-6t-5 4v387l371 188v160l-444 -223l-90 -136v-550zM604 123l68 33v346l-68 -33v-346zM766 123v532l-70 35v-82l-75 -39l75 -41v-372zM391 309v66l-80 41l-61 -31v-4zM979 309l143 72v4l-143 70 v-146zM229 403l70 33v187l78 41l-148 71v-332zM1141 403v52l-54 -27zM1047 451v157l-68 35v-160zM592 489l65 33l-254 127l-65 -33zM604 590l70 35v88q2 2 3 5t3 3l13 19.5t18.5 28.5t18.5 29.5t13 20.5l-139 -69v-160zM1059 631l250 125v2l-62 30l-250 -122v-4zM774 680 q6 8 14.5 19.5t19.5 27.5t22.5 33.5t17.5 27.5q4 4 4 9v2v2l-68 33l-79 -119zM592 770l156 78v4l-437 219l-159 -80zM872 817l437 219v4l-156 76l-440 -219zM674 918v79l76 41l-76 39v174l-336 -168l160 -77l88 41h10q6 0 6 -5v-90zM698 918l50 24v4l-50 25v-53zM778 958 l66 33l-66 33l-65 -33zM43 965l141 71v4l-141 70v-145zM578 965v53l-52 -27zM872 1006l160 77l-334 168v-159zM217 1051l440 221l-159 80l-437 -219v-5zM1305 1073q-4 0 -5 -4q0 -4 5 -4q4 0 4 4t-4 4zM1298 1073h2q0 2 -1 4t-1 4q-8 10 -21 29.5t-21.5 33t-10.5 15.5h-8 l-51 -26v-5zM1059 1098l160 80l-441 221l-155 -78v-4z" />
<glyph unicode="h" horiz-adv-x="1374" d="M393 270l-176 -86l-197 99v858l197 98l176 -86v174l199 98l94 -45l92 45l199 -98v-174l176 86l197 -98v-858l-197 -99l-176 86v-174l-199 -98l-92 45l-94 -45l-199 98v174zM578 31v721l-162 79v-266q0 -4 -6 -4h-7h-4l-192 96v281l-164 80v-721l164 -80v266q0 4 4 4h6h6 l193 -96v-280zM604 31l68 32v721l-68 -32v-721zM766 31v721l-68 32v-721zM793 31l161 80v280l193 96h6h6q6 0 6 -4v-266l162 80v721l-162 -80v-281l-194 -96h-4h-9q-4 0 -4 4v266l-161 -79v-721zM229 217l162 80v80l-162 80v-240zM1141 217v240l-162 -80v-80zM391 592v145 l-141 -71v-2zM979 592l143 72v2l-143 71v-145zM229 686l162 80v252l-162 -80v-252zM1141 686v252l-162 80v-252zM592 772l80 41v78l-80 41l-156 -78v-4zM778 772l156 78v4l-156 78l-80 -41v-78zM418 872l141 72v4l-141 70v-146zM952 872v146l-141 -70v-4zM672 920v333 l-68 -34v-267zM698 920l68 32v267l-68 34v-333zM217 961l156 77v2l-60 31h-192l-60 -31v-2zM1153 961l156 77v2l-60 31h-190l-62 -31v-2zM578 967v252l-160 81v-253zM793 967l159 80v253l-159 -81v-252zM43 1061l53 24l-53 27v-51zM391 1061v51l-53 -27zM979 1061l53 24 l-53 27v-51zM1327 1061v51l-51 -27zM129 1098h176l68 32v5l-156 77l-156 -77v-5zM1065 1098h176l68 32v5l-156 77l-156 -77v-5zM592 1241l80 39v80l-80 39l-156 -76v-4zM778 1241l156 78v4l-156 76l-80 -39v-80z" />
<glyph unicode="i" horiz-adv-x="1374" d="M20 580l185 92v80l-185 92v297l572 284l94 -45l92 45l572 -284v-297l-183 -92v-80l183 -92v-297l-572 -285l-92 45l-94 -45l-572 285v297zM578 31v157l-183 95v387q0 4 4 4h7h4l168 -82v160l-535 266v-158l184 -94v-387q0 -4 -4 -4h-6h-6l-168 82v-160zM604 31l68 32v160 l-68 -35v-157zM766 31v157l-68 35v-160zM793 31l534 266v160l-168 -82h-6q-8 0 -8 4v387l182 94v158l-534 -266v-160l168 82h10t4 -4v-387l-182 -95v-157zM592 211l80 41v78l-80 41l-156 -78v-4zM778 211l156 78v4l-156 78l-80 -41v-78zM418 311l160 80v172l-160 82v-334z M952 311v334l-159 -82v-172zM686 350l80 41v78l-80 41l-82 -41v-78zM205 403v107h-84l-60 -31v-4zM1167 403l142 72v4l-60 31h-82v-107zM43 498l53 26l-53 27v-53zM604 498l68 34v66l-68 -35v-65zM766 498v65l-68 35v-66zM1327 498v53l-51 -27zM129 535h76v110l-144 -72v-4z M1167 535h74l68 34v4l-142 72v-110zM604 592l68 33v159l-68 -32v-160zM766 592v160l-68 32v-159zM592 772l80 41v78l-359 180h-192l-60 -31v-2zM778 772l531 266v2l-60 31h-190l-361 -180v-78zM686 913l80 39v80l-80 39l-82 -39v-80zM580 967v80l92 47v159l-334 -168z M791 967l241 118l-334 168v-159l93 -47v-80zM43 1061l53 24l-53 27v-51zM1327 1061v51l-51 -27zM129 1098h176l367 182v80l-80 39l-531 -264v-5zM1065 1098h176l68 32v5l-531 264l-80 -39v-80z" />
<glyph unicode="j" horiz-adv-x="1374" d="M20 377v762l197 98l199 -98v-269l164 82v373l198 98l199 -98v-266l176 84l197 -99v-669l-95 -142l-383 -190l-186 90l-188 -90l-381 190zM498 68l80 41v641l-162 79v-546q0 -4 -6 -4h-7h-4l-192 96v92l-164 82v-164l90 -133zM872 68l367 184l88 133v633l-162 -82v-561 l-194 -96h-4h-9q-4 0 -4 4v79l-161 -81v-172zM604 123l70 33v186l92 47v440l-162 -79v-627zM766 123v158l-68 34v-159zM778 303l156 78v4l-143 70v-80l-78 -39zM391 309v146l-141 -70v-4zM977 309l145 72v4l-155 76l-66 -33l76 -39v-80zM229 403l162 80v66l-162 -80v-66z M1141 403v533l-162 82v-535zM872 442l80 41v78l-159 82v-160zM217 489l156 78v4l-62 31l-94 -45l-94 45l-62 -31v-4zM43 590l72 35h18l72 -35v440l-162 80v-520zM229 590l72 35h18l72 -35v520l-162 -80v-440zM952 590v145l-141 -69v-4zM793 684l159 80v534l-159 -81v-533z M592 770l156 78v4l-156 78l-156 -78v-4zM766 870v347l-162 81v-346zM1153 958l156 78v4l-156 76l-156 -76v-4zM217 1051l156 77v5l-156 77l-156 -77v-5zM778 1239l156 78v4l-156 78l-155 -78v-4z" />
<glyph unicode="k" horiz-adv-x="1374" d="M324 236l-107 -52l-197 99q0 762 1.5 764t3.5 2q4 4 20 11t21 11v4l-46 51v7q0 8 5 10l192 96l176 -86v174l199 98l94 -45l92 45l197 -96l72 -141l106 51l197 -98v-762q0 -4 -4 -4q-4 -4 -20.5 -12.5t-20.5 -10.5v-4l45 -53v-4q0 -8 -4 -10l-193 -97l-176 66v-154 l-199 -98l-92 45l-94 -45l-197 96zM598 27l68 32v4q0 4 -1 6.5t-3 6.5q-4 8 -16.5 27.5t-25 41t-24.5 41t-16 27.5v281l-41 84l-158 -80q-4 0 -4 -4v-2zM766 31v721l-72 34h-8q-4 -6 -15.5 -19t-23.5 -28.5t-23.5 -30t-13.5 -17.5t-3 -4t-3 -1v-461q0 -2 4 -10t8 -12 q10 -18 29 -51t31 -54.5t14 -25.5l8 -9zM793 31l161 80v278q0 4 4 4h9h4l186 -180l160 80v2q-2 2 -4 6t-4 6l-209 232v18l215 455l-152 -76l-188 -371q-2 -4 -8 -4h-9q-4 0 -4 4v266l-161 -79v-721zM565 37l-215 455v18l221 244l-163 82l-185 -181h-12q-4 0 -4 4v279 l-164 80v-721l164 -80v266q0 4 4 4h6q6 0 10 -4l187 -370zM229 217l84 41l-84 166v-207zM1102 231q-2 0 -2 -4q0 -2 2 -2q4 0 4 2q0 4 -4 4zM1092 231h8l-121 121v-78zM1167 645q0 -143 7.5 -152.5t11.5 -13.5q6 -6 20.5 -21.5t29.5 -32.5t29.5 -32.5t20.5 -21.5q4 2 18.5 9 t18.5 9q2 0 4 4v588l-160 -336v0zM1124 553q0 -12 17 -21v56q-6 -8 -11.5 -16.5t-5.5 -18.5zM414 543l121 59q0 2 14 15.5t22 23.5q2 2 9 10v41l63 78l-43 -20zM578 555v55l-19 -18zM977 625l160 315l-166 82l-64 -127l70 -37v-233zM229 696l162 162v160l-162 -80v-242z M592 772l80 41v78l-80 41l-156 -78v-4zM778 772l156 78v4l-156 78l-80 -41v-78zM416 872l153 76l-168 170l-63 -33l78 -38v-175zM885 907l20 39l-135 271l-72 36v-127l80 -165zM686 913l70 35l-82 172v133l-70 -34v-267zM217 961l156 77v2l-60 31h-192l-60 -31v-2zM1153 961 l156 77v2l-60 31h-190l-62 -31v-2zM920 973l34 67v99l70 37l-63 127l-164 -82zM578 977v242l-160 81v-161zM979 1061l53 24l-53 27v-51zM1327 1061v51l-51 -27zM96 1085q0 2 -4 2q-2 0 0 -2q0 -4 4 0zM88 1094q-4 0 -4 -4t4 -5q4 0 4 5q0 4 -4 4zM129 1098h176l68 32v5 l-156 77l-156 -77v-5zM1065 1098h176l68 32v5l-156 77l-156 -77v-5zM592 1241l80 39v80l-80 39l-156 -76v-4zM778 1241l156 78v4l-156 76l-80 -39v-80z" />
<glyph unicode="l" horiz-adv-x="1374" d="M20 1047l197 98l176 -84v266l199 98l199 -98v-373l163 -82v267l199 100l197 -98v-858l-572 -285l-92 45l-94 -45l-572 285v764zM578 31v157l-371 189v561l-164 80v-721zM604 31l68 32v160l-68 -35v-157zM766 31v721l-162 79v-534l92 -47v-187zM793 31l534 266v160 l-356 -176h-4h-9q-4 0 -4 4v546l-161 -79v-721zM592 211l65 33l-77 41v90l-177 88l-153 -78v-2zM979 311l330 164v4l-62 31l-94 -45l-94 45l-80 -41v-158zM229 403l162 82v533l-162 -80v-535zM578 403v54l-52 -27zM498 444l80 41v160l-160 -82v-78zM979 498l72 34h18l72 -34 v534l-162 80v-614zM1167 498l70 34h18l72 -34v614l-160 -80v-534zM418 592l141 72v2l-141 71v-145zM578 686v533l-160 81v-534zM778 772l156 78v4l-156 78l-155 -78v-4zM604 872l162 80v348l-162 -81v-347zM217 961l156 77v2l-156 78l-156 -78v-2zM1153 1053l156 77v5 l-156 77l-156 -77v-5zM592 1241l156 78v4l-156 76l-156 -76v-4z" />
<glyph unicode="m" horiz-adv-x="1374" d="M393 270l-176 -86l-197 99v858l197 98l115 -55h2q2 0 3 1t1 3l57 139l197 98l94 -45l92 45l193 -96q8 -4 8 -10q2 -4 9 -22.5t15.5 -38t15.5 -38t9 -22.5t4 -9t4 -5h2l115 55l197 -98v-858l-197 -99l-176 86v-174l-199 -98l-92 45l-94 -45l-199 98v174zM578 31v721 l-168 84q-90 -131 -92.5 -133.5t-4.5 -2.5h-2q-6 0 -11 9.5t-7 13.5l-86 213l-164 82v-721l164 -80v361q0 4 4 4h6q8 0 12 -13l80 -194q0 -8 4 -8h2l80 116q2 4 8 4h7q6 0 6 -4v-372zM604 31l68 32v721l-68 -32v-721zM766 31v721l-68 32v-721zM793 31l161 80v372q0 4 4 4h9 q8 0 12 -8l80 -117l86 216q2 4 8 4h6q6 0 6 -4v-361l162 80v721l-158 -78q-4 -2 -6 -6l-4 -8l-86 -215q-4 -10 -14 -11q-4 2 -7 6.5t-5 4.5l-84 125l-170 -84v-721zM229 217l162 80v65l-78 -36h-2q-6 0 -11 9t-7 13q-4 8 -12.5 30.5t-18.5 48.5t-19.5 47.5t-13.5 31.5v-289z M1141 217v285q-4 0 -4 -8q-2 -6 -11.5 -29t-20.5 -49.5t-20.5 -49t-11.5 -28.5q-4 -12 -14 -12l-80 36v-65zM391 434q-4 -6 -18.5 -27.5t-18.5 -27.5q-4 -4 -4 -8q4 2 18.5 9t18.5 9q2 0 4 4v41v0zM979 434q0 -41 1 -43t3 -2q4 -2 18.5 -9t18.5 -9q0 4 -14.5 25.5 t-22.5 33.5q0 2 -4 4zM924 887q4 -2 23.5 -11.5t23.5 -13.5q2 -2 5 -4t3 -4l80 -117q4 10 14 37t22.5 57.5t22.5 57t15 37.5q0 2 2 5t2 5v2v2l-158 78h-8q-2 -2 -9.5 -20.5t-17.5 -46t-16 -44.5q-4 -8 -4 -16v-4v0zM309 750q0 -8 4 -9h2l80 117l4 4q4 4 23.5 13.5t23.5 11.5 v12q-2 2 -9 21.5t-17 47t-17 44.5q-4 4 -4 6t-4 2l-4 -2l-158 -78zM592 772l80 41v78l-80 41l-156 -78v-4zM778 772l156 78v4l-156 78l-80 -41v-78zM410 1049q4 -2 5 -5.5t3 -5.5q2 -4 9 -22.5t15.5 -38t15.5 -37.5t9 -22.5t6 -14.5h4l115 55l80 -38v333l-64 -32 q-4 -2 -6 -6.5t-4 -8.5l-86 -213q-4 -4 -6 -8t-8 -4h-2q-2 2 -6.5 6t-4.5 6l-84 123l-63 -31zM893 903h2q2 0 4 1t2 3l57 140l74 38l-61 31l-88 -131q-2 0 -4 -2t-5 -2h-2q-6 0 -10 9t-6 14l-86 213l-72 36v-333l80 38zM217 961l156 77v2l-60 31h-192l-60 -31v-2zM1153 961 l156 77v2l-60 31h-190l-62 -31v-2zM360 1169q6 -4 26 -13t24 -13l8 -8l78 -117q4 10 15 36.5t22.5 57.5t22.5 57.5t15 36.5q0 2 1 6.5t3 4.5v2v2l-157 79h-8q-2 -2 -9.5 -21t-18.5 -47t-17 -44q-2 -6 -3.5 -9t-1.5 -8v-2v0zM870 1030q0 -2 4 -8h3h2l77 117l5 4q6 4 24.5 13 t24.5 13v11q-2 2 -9.5 21.5t-18.5 47t-17 43.5q-2 8 -9 8h-4l-157 -79zM43 1061l53 24l-53 27v-51zM1327 1061v51l-51 -27zM129 1098h176l68 32v5l-156 77l-156 -77v-5zM1065 1098h176l68 32v5l-156 77l-156 -77v-5zM592 1241l80 39v80l-80 39l-156 -76v-4zM778 1241l156 78 v4l-156 76l-80 -39v-80z" />
<glyph unicode="n" horiz-adv-x="1374" d="M217 184l-197 99v858l197 98l115 -55h2q2 0 3 1t1 3l57 139l197 98l94 -45l92 45l199 -98v-174l176 86l197 -98v-858l-197 -99l-176 86v-174l-199 -98l-92 45l-94 -45l-193 96q-4 2 -5 5t-3 5q-2 4 -9 22.5t-15.5 38t-15.5 38t-9 22.5t-6 15h-4zM578 31v721l-162 79v-360 q0 -4 -6 -4h-7q-10 0 -12 12l-184 457l-164 82v-721l164 -80v361q0 4 4 4h6q8 0 12 -13l185 -456zM604 31l68 32v721l-68 -32v-721zM766 31v721l-68 32v-721zM793 31l161 80v372q0 4 4 4h9q8 0 12 -8l178 -266l170 84v721l-162 -80v-373q0 -4 -6 -4h-6q-6 0 -8 4l-182 271 l-170 -84v-721zM229 217l90 45q4 0 5 4v2q0 2 -1 6.5t-4 6.5q-4 12 -17 44.5t-27.5 67.5t-26.5 68t-19 45v-289zM1118 231q-4 0 -4 -4q0 -2 4 -2t4 2q0 4 -4 4zM1110 231h6l-137 205v-139zM393 543q0 315 2 316t4 3q4 4 23.5 13.5t23.5 11.5v12q-2 2 -9 21.5t-17 47 t-17 44.5q-4 4 -4 6t-4 2l-4 -2l-158 -78zM1141 614v324l-162 80v-162zM592 772l80 41v78l-80 41l-156 -78v-4zM778 772l156 78v4l-156 78l-80 -41v-78zM954 872v175l78 38l-61 31l-123 -184v-6zM592 958l80 -38v333l-64 -32q-4 -2 -6 -6.5t-4 -8.5l-123 -305zM698 920 l68 32v267l-68 34v-333zM416 1040l2 -4t4 -6q2 -6 7 -19.5t11 -27.5t11.5 -27.5t7.5 -19.5h2q2 0 3 3t3 5l104 262q0 2 1 6.5t3 4.5v2v2l-157 79h-8q-2 -2 -9.5 -21t-18.5 -47t-17 -44q-2 -6 -3.5 -9t-1.5 -8v-2q6 -4 26 -13t24 -13q2 -2 6 -4v-99v0zM793 954l4 -4 q2 0 10 -4l12 -6h2q4 0 4 4l127 191v165l-159 -81v-265zM217 961l156 77v2l-60 31h-192l-60 -31v-2zM1153 961l156 77v2l-60 31h-190l-62 -31v-2zM43 1061l53 24l-53 27v-51zM391 1061v51l-53 -27zM1327 1061v51l-51 -27zM129 1098h176l68 32v5l-156 77l-156 -77v-5z M1065 1098h176l68 32v5l-156 77l-156 -77v-5zM592 1241l80 39v80l-80 39l-156 -76v-4zM778 1241l156 78v4l-156 76l-80 -39v-80z" />
<glyph unicode="o" horiz-adv-x="1374" d="M20 377v665l97 144l372 186h19l178 -86l176 86h21l372 -186l95 -142v-669l-95 -142l-383 -190l-186 90l-188 -90l-381 190zM498 68l80 41v553l-89 131l-366 184l-80 -41v-551l90 -133zM872 68l367 184l88 133v551l-80 41l-364 -182l-90 -136v-550zM604 123l68 33v534 l-68 -35v-532zM766 123v532l-68 35v-534zM207 762q0 4 4 4h6h6l191 -96v-387q0 -4 -4 -4h-7h-4l-192 96v387zM1147 766h6h6t4 -4v-387l-192 -96h-4h-6t-5 4v387zM391 309v146l-141 -70v-4zM979 309l143 72v4l-143 70v-146zM229 403l162 80v172l-162 80v-332zM1141 403v332 l-162 -80v-172zM672 717v160l-156 -78l80 -119zM774 680q6 8 14.5 19.5t19.5 27.5t22.5 33.5t17.5 27.5q4 4 4 9v2v2l-154 76v-160zM498 817l159 80l-346 174l-159 -80zM872 817l347 174l-160 80l-346 -174zM672 918v333l-334 -168l160 -77l88 41h10q6 0 6 -5v-90zM698 918 l70 34v90q0 4 4 5h8h4l88 -41l160 77l-334 168v-333zM43 965l53 26l-53 27v-53zM578 965v53l-52 -27zM793 965l51 26l-51 27v-53zM1327 965v53l-51 -27zM53 1040l70 -34l160 77l-150 76h-2h-2q-2 0 -4 -3t-4 -5q-4 -6 -13.5 -20.5t-20.5 -30t-20.5 -29.5t-13.5 -20 q0 -2 -1 -4.5t-1 -4.5zM1247 1006l71 35.5t3 0.5v2v3l-78 114l-156 -78zM311 1098l346 174l-159 80l-346 -174zM1059 1098l160 80l-347 174l-159 -80z" />
<glyph unicode="p" horiz-adv-x="1374" d="M580 362l-82 -36l-82 36v-77l-199 -101l-197 99v761l97 144l475 237l186 -90l84 39h21l467 -233v-764l-197 -98l-176 83v-266l-199 -98l-198 98v266zM766 31v721l-137 67l65 -100v-295l-90 -47v-266zM793 31l161 80v280l285 144l88 131v272l-80 41l-454 -227v-721z M207 217v266q0 4 4 4h6h6l275 -137l80 41v273l-89 131l-446 223v-721zM229 217l162 80v80l-162 80v-240zM1141 311v146l-144 -72v-2zM1167 311l160 80v232l-72 -107l-88 -47v-158zM604 403l68 35v252l-68 -33v-254zM207 764q0 4 4 4h6h6l191 -96v-107q0 -4 -4 -4h-7h-4 l-192 96v107zM1147 768h6h6t4 -4v-107l-192 -96h-4h-6t-5 4v107zM391 592v65l-80 41l-61 -32v-2zM979 592l143 72v2l-63 32l-80 -41v-65zM666 715v2v2q-4 4 -4 8q-10 14 -27 39t-28 42t-13 19l-8 9l-70 -35l80 -119zM229 686l54 25l-54 26v-51zM1141 686v51l-54 -26z M778 772l441 221l-160 78l-436 -217v-4zM498 819l159 80l-440 219l-156 -78v-2zM672 920v333l-334 -168l160 -79l88 43h10q6 0 6 -5v-90zM698 920l70 34v90q0 4 4 5h8h4l88 -43l160 79l-334 168v-333zM578 967v51l-52 -25zM793 967l51 26l-51 25v-51zM1327 967v145l-141 -72 v-2zM1153 1053l156 77v5l-437 219l-159 -80zM129 1161l-8 -8l-53 -82l116 59v5l-51 26h-2h-2zM311 1100l437 219v4l-156 76l-440 -219z" />
<glyph unicode="q" horiz-adv-x="1374" d="M444 106q-4 0 -17 -7t-17 -7h-7h-4l-282 141l-97 144v665l97 144l372 186h19l178 -86l176 86h21l372 -186l95 -142v-573q0 -4 -4 -8q-4 -6 -16.5 -26.5t-16.5 -26.5q6 -4 21.5 -9.5t15.5 -17.5q0 -8 -4 -14q-90 -135 -92.5 -136.5t-4.5 -1.5l-2 -2l-2 2q-4 0 -17.5 6.5 t-15.5 8.5h-4q-10 0 -16 -8.5t-10 -18.5t-9.5 -19.5t-13.5 -13.5l-287 -143l-186 90l-186 -90h-2h-2q-2 2 -6.5 6t-4.5 6q-4 4 -17 23.5t-17 23.5q0 4 -5 4h-2zM872 68q272 137 273.5 138t1.5 3q2 2 8 10t13.5 18.5t13.5 19.5t8 11q4 8 12 8q2 0 2 -2q4 0 17.5 -6t15.5 -8h4 h4l76 113v2q0 6 -5 9t-12.5 6t-12.5 6t-5 12v6l41 63v459l-80 41l-364 -182l-90 -136v-550zM451 133q10 0 17 -9t13 -20.5t11.5 -20.5t13.5 -9h2l59 28q0 2 4 4v3v2l-34 53v6q0 8 6 13t14 8.5t14.5 6.5t6.5 7v457l-89 131l-366 184l-80 -41v-551l90 -133l266 -133l4 -2 q14 0 25 8t23 8zM563 166q4 -4 15.5 -21.5t15.5 -21.5q0 -4 4 -4l68 33v2v2q-4 10 -15.5 27.5t-17.5 17.5h-2l-68 -35v0zM662 209q0 -2 11 -18.5t17 -26.5q2 -2 4 -5t4 -3l68 -33v532l-70 35v-457l-34 -18v-6zM604 215l68 35v440l-68 -35v-440zM1147 766h6h6t4 -4v-291 q0 -4 -4 -4h-6h-6q-2 0 -15.5 6t-17.5 8h-2h-2l-74 -112v-7q6 -4 19.5 -11t13.5 -19v-4l-98 -49h-4h-6t-5 4v387zM979 309l53 27l-53 26v-53zM207 762q0 4 4 4h6h6l191 -96v-293q0 -4 -4 -4h-7q-6 0 -8 4q-4 6 -20.5 29.5t-20.5 29.5l-71 -35q37 -59 38 -61t1 -4 q0 -12 -11 -12h-2l-102 51v387zM248 383q0 -2 2 -2l22 -12v2v2q-2 2 -6 8t-8 6h-2q-2 0 -6 -2l-2 -2v0zM979 391l4 -4q4 -2 11 -5t12 -5h2h2l4 4l76 113l-111 55v-158zM229 403l162 80v172l-162 80v-332zM391 426v29l-14 -6zM1141 496v239l-162 -80v-77zM672 717v160 l-156 -78l80 -119zM774 680q6 8 14.5 19.5t19.5 27.5t22.5 33.5t17.5 27.5q4 4 4 9v2v2l-154 76v-160zM498 817l159 80l-346 174l-159 -80zM872 817l347 174l-160 80l-346 -174zM672 918v333l-334 -168l160 -77l88 41h10q6 0 6 -5v-90zM698 918l70 34v90q0 4 4 5h8h4l88 -41 l160 77l-334 168v-333zM43 965l53 26l-53 27v-53zM578 965v53l-52 -27zM793 965l51 26l-51 27v-53zM1327 965v53l-51 -27zM53 1040l70 -34l160 77l-150 76h-2h-2q-2 0 -4 -3t-4 -5q-4 -6 -13.5 -20.5t-20.5 -30t-20.5 -29.5t-13.5 -20q0 -2 -1 -4.5t-1 -4.5zM1247 1006 l71 35.5t3 0.5v2v3l-78 114l-156 -78zM311 1098l346 174l-159 80l-346 -174zM1059 1098l160 80l-347 174l-159 -80z" />
<glyph unicode="r" horiz-adv-x="1374" d="M393 270l-176 -86l-197 99v761l97 144l475 237l186 -90l84 39h21l467 -233v-858l-197 -99l-176 86v-174l-199 -98l-92 45l-94 -45l-199 98v174zM578 31v258l-86 131l-5 10q0 6 9 12l82 43v179l-89 131l-446 223v-721l164 -80v266q0 4 4 4h6h6l193 -96v-280zM604 31l68 32 v254l-68 -34v-252zM766 31v721l-137 67l65 -100v-203l-78 -41q-4 0 -4 -2t1 -4t3 -4l80 -121v-281zM793 31l161 80v280l193 96h6h6q6 0 6 -4v-266l162 80v266l-82 43q-8 6 -8 12t4 11l86 131v178l-80 41l-454 -227v-721zM229 217l162 80v80l-162 80v-240zM1141 217v240 l-162 -80v-80zM666 340v2v2q-4 4 -4 8q-10 14 -27 39t-28 42.5t-13 19.5l-8 8l-70 -35l80 -119zM604 498l68 34v158l-68 -33v-159zM207 764q0 4 4 4h6h6l191 -96v-107q0 -4 -4 -4h-7h-4l-192 96v107zM1147 768h6h6t4 -4v-107l-192 -96h-4h-6t-5 4v107zM391 592v65l-80 41 l-61 -32v-2zM979 592l143 72v2l-63 32l-80 -41v-65zM1327 592v123l-61 -92zM666 715v2v2q-4 4 -4 8q-10 14 -27 39t-28 42t-13 19l-8 9l-70 -35l80 -119zM229 686l54 25l-54 26v-51zM1141 686v51l-54 -26zM778 772l441 221l-160 78l-436 -217v-4zM498 819l159 80l-440 219 l-156 -78v-2zM672 920v333l-334 -168l160 -79l88 43h10q6 0 6 -5v-90zM698 920l70 34v90q0 4 4 5h8h4l88 -43l160 79l-334 168v-333zM578 967v51l-52 -25zM793 967l51 26l-51 25v-51zM1327 967v145l-141 -72v-2zM1153 1053l156 77v5l-437 219l-159 -80zM129 1161l-8 -8 l-53 -82l116 59v5l-51 26h-2h-2zM311 1100l437 219v4l-156 76l-440 -219z" />
<glyph unicode="s" horiz-adv-x="1374" d="M498 43l-478 240v858l469 233h19l84 -39l186 90l477 -237l95 -141v-295l-74 -41l74 -39v-295l-95 -141l-477 -238l-186 90zM766 31v157l-70 35v-82l-75 -39zM793 31l446 223l88 131v272l-80 41l-276 -137h-4h-6t-5 4v107l371 188v158l-444 -221l-90 -135v-271l79 -41 l275 137h6h6t4 -4v-106l-370 -189v-157zM498 70l80 41v272l-86 131l-285 143v107q0 4 4 4h6h6l355 -176v160l-455 227l-80 -41v-270l90 -133l281 -144v-106q0 -4 -4 -4h-7h-4l-356 176v-160zM604 123l70 35v92l92 47v80l-80 39l-82 -39v-254zM778 211l344 172v2l-63 31 l-187 -90l-81 36v-77l-78 -41zM391 311v66l-268 133l-62 -31v-4zM666 434v2v2q-4 0 -4 8q-8 10 -19.5 28t-23 33t-25.5 40l-8 8l-70 -35l80 -121zM766 403v254l-70 35v-82l-80 -41q-2 0 -3 -2t0 -5t3 -5l78 -117zM1141 403v54l-54 -27zM43 498l59 30v2q0 2 -1 5.5t-3 3.5 q-6 8 -14 21t-16.5 25.5t-20.5 32.5l-4 5v-125zM498 539l61 30v4l-248 125l-61 -32v-2zM604 592l70 33v90q2 2 3 4t3 4l13 19.5t18.5 28.5t18.5 28.5l13 19.5l-139 -67v-160zM979 592l240 119l-66 32l-174 -86v-65zM774 682q6 6 14.5 18.5t19.5 28.5t22.5 33.5t17.5 28.5 q4 0 4 8v2l-68 35l-79 -119zM229 686l54 25l-54 26v-51zM1247 725l80 41v65l-141 -71v-4zM592 772l156 78v4l-437 217l-159 -78zM872 819l437 219v2l-156 78l-440 -219zM674 918v81l76 39l-76 41v174l-336 -168l160 -79l88 43h10q6 0 6 -5v-90zM698 920l50 24v4l-50 25v-53z M778 961l66 32l-66 33l-65 -33zM43 967l141 71v2l-141 72v-145zM578 967v51l-52 -25zM872 1006l160 79l-334 168v-159zM217 1053l440 221l-159 80l-437 -219v-5zM1305 1075q-4 0 -5 -4q0 -4 5 -4q4 0 4 4t-4 4zM1298 1075h2l-2 6l-53 80h-8l-51 -26v-5zM1059 1100l160 80 l-441 219l-155 -76v-4z" />
<glyph unicode="t" horiz-adv-x="1374" d="M207 748l-187 96v295l572 284l94 -43l92 43l572 -284v-295l-185 -96v-560l-198 -98l-199 98v373l-82 41l-84 -41v-373l-199 -98l-196 98v560zM393 123v545q0 4 5 5t8 1l4 -2l168 -82v160l-535 268v-160l184 -94v-561zM418 123l160 80v358l-160 82v-520zM952 123v520 l-159 -82v-358zM971 672q6 0 6 -4v-545l166 80v561l184 94v160l-534 -268v-160q168 82 170 83t4 1zM604 590l68 35v157l-68 -32v-160zM766 590v160l-68 32v-157zM592 770l80 41v78l-359 180h-192l-60 -29v-4zM778 770l531 266v4l-60 29h-190l-361 -180v-78zM686 911l80 41 v78l-80 41l-82 -41v-78zM580 965v79l92 48v159l-334 -168zM791 965l241 118l-334 168v-159l93 -48v-79zM43 1059l53 24l-53 27v-51zM1327 1059v51l-51 -27zM129 1096h176l367 184v78l-80 41l-531 -266v-5zM1065 1096h176l68 32v5l-531 266l-80 -41v-78z" />
<glyph unicode="u" horiz-adv-x="1374" d="M20 377v762l197 98l176 -86v174l199 98l94 -43l92 43l199 -98v-174l176 86l197 -98v-764l-95 -142l-383 -190l-186 90l-188 -90l-381 190zM498 68l80 41v641l-162 79v-546q0 -4 -6 -4h-7h-4l-192 96v561l-164 82v-633l90 -133zM872 68l367 184l88 133v633l-162 -82v-561 l-194 -96h-4h-9q-4 0 -4 4v546l-161 -79v-641zM604 123l68 33v626l-68 -32v-627zM766 123v627l-68 32v-626zM391 309v146l-141 -70v-4zM979 309l143 72v4l-143 70v-146zM229 403l162 80v535l-162 -82v-533zM1141 403v533l-162 82v-535zM592 770l80 41v78l-80 41l-156 -78v-4 zM778 770l156 78v4l-156 78l-80 -41v-78zM418 870l160 82v265l-160 81v-428zM952 870v428l-159 -81v-265zM672 918v333l-68 -34v-265zM698 918l68 34v265l-68 34v-333zM217 958l156 78v4l-60 29h-192l-60 -29v-4zM1153 958l156 78v4l-60 29h-190l-62 -29v-4zM43 1059l53 24 l-53 27v-51zM391 1059v51l-53 -27zM979 1059l53 24l-53 27v-51zM1327 1059v51l-51 -27zM129 1096h176l68 32v5l-156 77l-156 -77v-5zM1065 1096h176l68 32v5l-156 77l-156 -77v-5zM592 1239l80 41v78l-80 41l-156 -78v-4zM778 1239l156 78v4l-156 78l-80 -41v-78z" />
<glyph unicode="v" horiz-adv-x="1374" d="M20 1028v8q0 10 8.5 12.5t8.5 12.5q0 18 -8.5 35.5t-8.5 33.5q0 8 5 11l192 96l137 -66v-2h2q2 0 2 1t1 3.5t1 4.5l35 149l197 96l94 -43l92 43l193 -96q4 -2 6 -6t2 -8q2 -4 6 -23.5t9 -42t9.5 -42t6.5 -23.5q0 -2 1 -6.5t3 -4.5v-2q2 0 2 2l137 66l193 -96q4 -2 4 -13 q0 -16 -7.5 -33.5t-7.5 -35.5q0 -10 7.5 -12.5t7.5 -12.5v-10l-183 -823q-2 -4 -3 -8.5t-5 -6.5l-192 -96l-197 96l-84 287l-2 -2l-80 -274q0 -2 -2 -6.5t-4 -4.5l-195 -96l-194 96zM391 123v-2h2q2 0 2 2l4 2l179 625l-160 79h-2q-2 0 -4 -3t-2 -5l-91 -305q0 -4 -6 -4h-2 q-6 0 -9 7t-5 11l-90 406l-160 78l180 -809zM971 125q2 0 4 -2v-2h2q2 0 2 2l166 82l180 811l-156 -78q-6 -6 -6 -10l-90 -402q-4 -14 -14 -14q-2 0 -8 6l-90 307q0 4 -5 4h-2h-2l-157 -79zM424 125l158 80l90 313v264l-70 -34zM946 125l-176 623l-72 34v-260l90 -319z M313 571l82 285l4 4q4 2 13.5 7t11.5 7v15l-25 121q0 2 -2 4t-2 4h-2h-2l-160 -82zM946 874q4 -2 13.5 -7t11.5 -7l4 -4l84 -285l78 349v18l-158 80h-2h-2q0 -8 -4 -12q-2 -16 -8.5 -46t-11.5 -49.5t-5 -23.5v-13v0zM592 770l80 41v78l-80 41l-156 -78v-4zM778 770l156 78v4 l-156 78l-80 -41v-78zM422 1028q0 -10 3 -24.5t7 -33t8 -38t6 -31.5q4 -4 5 -12h2h2q0 2 4 4v2v2l-37 131v0zM915 889h3h2q0 2 2 4t2 4l26 117v10l-39 -131zM481 909q4 -4 13.5 -1t13.5 7q6 6 6 17l61 268v19l-157 79h-2h-2q0 -2 -2 -6t-2 -6q-4 -16 -10.5 -46t-11.5 -49.5 t-5 -23.5v-12q4 -2 13.5 -7t13.5 -7q2 0 4 -4l67 -228v0zM860 920l2 -5q4 -2 12.5 -6t10.5 -4h2h2l67 232l5 4q4 2 13 7t13 7v16l-26 119q0 4 -5 8h-2h-2l-159 -79zM672 918v333l-64 -32q-2 0 -4 -4.5t-4 -6.5l-59 -276l51 24zM698 918l80 38l47 -22h6l-63 283l-70 34v-333z M217 958l156 78v4l-60 29h-192l-60 -29v-4zM1153 958l156 78v4l-60 29h-190l-62 -29v-4zM952 1040q-2 0 -2 -6q0 -4 2 -2q2 0 2 2q0 4 -2 6zM418 1042q-2 2 -2 -4q0 -4 2 -2q2 0 2 2q0 4 -2 4zM414 1047v4v4q-2 6 -7.5 26.5t-7.5 24.5q0 2 -4 4h-2h-2l-53 -27zM977 1110 q-4 0 -6 -8t-2 -10q-2 -6 -6.5 -21.5t-6.5 -19.5v-2v-2l76 36l-53 27h-2v0zM51 1104q0 -4 3 -14.5t3 -12.5q2 -2 4 -8h2h3q4 2 15 7t15 7l-45 23v-2zM1305 1069h2q6 0 10 16.5t4 20.5l-45 -23zM129 1096h176l68 32v5l-156 77l-156 -77v-5zM1065 1096h176l68 32v5l-156 77 l-156 -77v-5zM592 1239l80 41v78l-80 41l-156 -78v-4zM778 1239l156 78v4l-156 78l-80 -41v-78z" />
<glyph unicode="w" horiz-adv-x="1374" d="M217 184l-197 99v858l197 98l176 -86v174l199 98l94 -45l92 45l199 -98v-174l176 86l197 -98v-858l-197 -99l-115 56h-2q-4 0 -4 -9q-2 -4 -9 -21t-15.5 -36.5t-15.5 -38t-8 -20.5t-5 -10.5t-8 -10.5l-193 -96l-92 45l-94 -45l-193 96q-4 2 -5 5t-3 5q-2 4 -9 22.5 t-15.5 38t-15.5 38t-9 22.5t-6 15h-4zM578 31v721l-162 79v-360q0 -4 -6 -4h-7q-6 0 -7 3t-5 9l-82 205l-80 -115q-4 -8 -12 -8h-6t-4 4v373l-164 80v-721l170 -84l84 125q6 6 14 6t10.5 -5l6.5 -13l86 -213zM604 31l68 32v721l-68 -32v-721zM766 31v721l-68 32v-721z M793 31l165 82l89 221q4 10 14 10q6 0 8 -1t8 -9l80 -121l170 84v721l-162 -80v-373q0 -4 -6 -4h-6q-6 0 -8 4l-82 121l-80 -199q-4 -8 -6 -14t-10 -6h-9q-4 0 -4 4v360l-161 -79v-721zM1118 231q-4 0 -4 -4q0 -2 4 -2t4 2q0 4 -4 4zM301 299q-4 -8 -22.5 -33.5t-22.5 -34.5 h4l59 31q4 0 5 4v2q0 10 -5.5 20.5t-9.5 18.5zM1047 266q0 -2 4 -4l59 -31h4q0 2 -4 9q-6 10 -17.5 26.5t-18.5 27.5t-9 13q-4 0 -9 -14t-9 -23v-2v-2zM328 705l1 -5q1 -4 3 -8q2 -8 11 -29.5t18.5 -45t17.5 -45t12 -29.5v194l-59 -28l-4 -4v0zM979 543q0 2 2 4t2 4 q2 8 11.5 29.5t18.5 45t17 45t12 29.5v2v3l-4 4l-59 28v-194zM229 612l74 109l88 45v252l-162 -80v-326zM1141 614v324l-162 80v-252l90 -47zM592 772l80 41v78l-80 41l-156 -78v-4zM778 772l156 78v4l-156 78l-80 -41v-78zM418 872q4 2 11 6.5t11 6.5l4 2l37 94v2v2l-4 4 l-59 29v-146zM889 985l2 -4q2 -4 2 -8q2 -6 7 -16.5t9 -22.5t8.5 -22.5t6.5 -12.5q4 -12 8 -17t20 -10v146l-59 -29q0 -2 -4 -4zM477 903q4 2 22.5 10.5t22.5 12.5q4 0 4 4l-24 37l-25 -60v-4zM848 926l45 -23v2q0 14 -7 29.5t-16 28.5q-8 -6 -15 -15.5t-7 -19.5v-2z M672 920v333l-68 -34v-267zM698 920l68 32v267l-68 34v-333zM500 1004q2 0 7 -5.5t7 -9.5q4 -6 17.5 -24.5t17.5 -24.5h2h2q2 2 10 6t12 4q0 2 3 4v265l-160 81v-253zM793 954l4 -4q2 0 10 -4l12 -6q6 0 12.5 8t12.5 19.5t13 21.5t13 15l82 43v253l-159 -81v-265zM217 961 l156 77v2l-60 31h-192l-60 -31v-2zM1153 961l156 77v2l-60 31h-190l-62 -31v-2zM43 1061l53 24l-53 27v-51zM391 1061v51l-53 -27zM979 1061l53 24l-53 27v-51zM1327 1061v51l-51 -27zM129 1098h176l68 32v5l-156 77l-156 -77v-5zM1065 1098h176l68 32v5l-156 77l-156 -77 v-5zM592 1241l80 39v80l-80 39l-156 -76v-4zM778 1241l156 78v4l-156 76l-80 -39v-80z" />
<glyph unicode="x" horiz-adv-x="1374" d="M217 184l-192 97q-4 2 -5 10v4q4 6 16.5 26.5t16.5 26.5q4 4 4 8q-6 4 -21.5 9.5t-15.5 19.5v4l127 322l-122 311q-4 10 -5 18q0 10 16.5 16.5t20.5 10.5q0 4 -4 8q-4 6 -16 26.5t-17 24.5v7q0 8 5 10l192 96l115 -55h2q2 0 3 1t1 3l57 139l197 98l94 -45l92 45l193 -96 q8 -4 8 -10q2 -4 9 -22.5t15.5 -38t15.5 -38t9 -22.5t4 -9t4 -5h2l115 55l193 -96q4 -2 4 -10q0 -6 -4.5 -12.5t-16.5 -27t-16 -26.5q12 -6 24.5 -10t12.5 -21v-6l-123 -311v-6q0 -10 4 -21l115 -291q4 -10 4 -18q0 -12 -15.5 -17.5t-21.5 -9.5q4 -6 16 -26.5t16.5 -26.5 t4.5 -12q0 -8 -4 -10l-193 -97l-115 56h-2q-4 0 -4 -9q-2 -4 -9 -21t-15.5 -36.5t-15.5 -38t-8 -20.5t-5 -10.5t-8 -10.5l-193 -96l-92 45l-94 -45l-193 96q-4 2 -5 5t-3 5q-2 4 -9 22.5t-15.5 38t-15.5 38t-9 22.5t-6 15h-4zM774 27l172 430q0 8 4 12v2l-157 80 q-8 0 -17.5 -23.5t-23 -56.5t-27.5 -68.5t-23 -58.5q-2 -2 -4 -10v-271zM594 37q2 -8 6 -8q2 0 4 2l68 32v275l-82 205q-2 8 -8 8h-4l-158 -80zM567 35l-168 426q-4 8 -4 18v4l176 267v2v2l-4 2l-157 80q-90 -131 -92.5 -133.5t-4.5 -2.5h-2q-6 0 -11 9.5t-7 13.5l-86 213 l-154 78l170 -426q2 -6 3 -8t1 -9q0 -8 -4 -14l-170 -254q0 -2 -1 -4t-1 -4l2 -2l160 -80l84 125q6 6 14 6t10.5 -5l6.5 -13l86 -213zM958 113l89 221q4 10 14 10q6 0 8 -1t8 -9l80 -121q160 80 161 81t3 1v2v2l-180 270l178 445l-150 -74q-4 -2 -6 -6l-4 -8l-86 -215 q-4 -10 -14 -11q-4 2 -7 6.5t-5 4.5l-84 125l-160 -80l-4 -2q0 -2 2 -4t2 -5l168 -253q4 -6 4 -9v-8v-6l-172 -434zM1118 231q-4 0 -4 -4q0 -2 4 -2t4 2q0 4 -4 4zM301 299q-4 -8 -22.5 -33.5t-22.5 -34.5h4l59 31q4 0 5 4v2q0 10 -5.5 20.5t-9.5 18.5zM1047 266q0 -2 4 -4 l59 -31h4q0 2 -4 9q-6 10 -17.5 26.5t-18.5 27.5t-9 13q-4 0 -9 -14t-9 -23v-2v-2zM684 375h2q4 0 4 8q2 4 7 17.5t11.5 27.5t12.5 27.5t8 19.5q0 4 2 8t0 4l-45 23l-47 -23zM47 389l8 -4t15 -6h2q2 0 3 1t1 3l121 178q4 6 4 14v5l-39 94q-2 -2 -6 -10l-105 -263l-4 -12v0z M1169 569l129 -190h2q6 2 23 10v4l-111 281q-4 -2 -8 -10q-4 -10 -15 -38t-15 -38l-3.5 -7t-1.5 -8v-4zM930 514q-2 0 -2 -4t2 -4q4 0 4 4t-4 4zM442 510l142 72l88 131v71l-72 -34zM608 567q0 -2 2 -10t6.5 -18.5t8.5 -18.5t8 -8q2 0 2 2l37 18v136l-64 -95v-6v0zM741 510 l25 59l-68 101v-138zM924 514h4l-156 234l-74 36v-69l90 -135zM924 887q4 -2 23.5 -11.5t23.5 -13.5q2 -2 5 -4t3 -4l80 -117q4 10 14 37t22.5 57.5t22.5 57t15 37.5q0 2 2 5t2 5v2v2l-158 78h-8q-2 -2 -9.5 -20.5t-17.5 -46t-16 -44.5q-4 -8 -4 -16v-4v0zM309 750 q0 -8 4 -9h2l80 117l4 4q4 4 23.5 13.5t23.5 11.5v12q-2 2 -9 21.5t-17 47t-17 44.5q-4 4 -4 6t-4 2l-4 -2l-158 -78zM592 772l80 41v78l-80 41l-156 -78v-4zM778 772l156 78v4l-156 78l-80 -41v-78zM410 1049q4 -2 5 -5.5t3 -5.5q2 -4 9 -22.5t15.5 -38t15.5 -37.5t9 -22.5 t6 -14.5h4q109 51 111 52t4 1q6 0 11 -2t13 -6q0 2 3.5 7.5t3.5 7.5q2 4 8 19l13 32.5t13.5 35t10.5 25.5q2 2 4 10v168l-64 -32q-4 -2 -6 -6.5t-4 -8.5l-86 -213q-4 -4 -6 -8t-8 -4h-2q-2 2 -6.5 6t-4.5 6l-84 123l-63 -31zM778 956q2 0 6 -2l109 -51h2q2 0 4 1t2 3l57 140 l74 38l-61 31l-88 -131q-2 0 -4 -2t-5 -2h-2q-6 0 -10 9t-6 14l-86 213l-72 36v-168q2 -4 10.5 -25.5t21.5 -54t22 -51.5l2 -6q8 4 13 6t11 2zM641 940q0 -6 4 -8q8 -4 22.5 -11.5t16.5 -7.5h2l45 23l-45 113q-2 -2 -6 -11q-2 -6 -7 -19t-11.5 -27.5t-11.5 -28t-7 -19.5 l-2 -4v0zM217 961l156 77v2l-60 31h-192l-60 -31v-2zM1153 961l156 77v2l-60 31h-190l-62 -31v-2zM360 1169q6 -4 26 -13t24 -13l8 -8l78 -117q4 10 15 36.5t22.5 57.5t22.5 57.5t15 36.5q0 2 1 6.5t3 4.5v2v2l-157 79h-8q-2 -2 -9.5 -21t-18.5 -47t-17 -44q-2 -6 -3.5 -9 t-1.5 -8v-2v0zM870 1030q0 -2 4 -8h3h2l77 117l5 4q6 4 24.5 13t24.5 13v11q-2 2 -9.5 21.5t-18.5 47t-17 43.5q-2 8 -9 8h-4l-157 -79zM1290 1079l15 23l-29 -17zM70 1098q2 -4 5 -10.5t9 -6.5q4 0 12 4q-4 2 -12 6.5t-10 6.5h-2h-2v0zM129 1098h176l68 32v5l-156 77 l-156 -77v-5zM1065 1098h176l68 32v5l-156 77l-156 -77v-5zM592 1241l80 39v80l-80 39l-156 -76v-4zM778 1241l156 78v4l-156 76l-80 -39v-80z" />
<glyph unicode="y" horiz-adv-x="1374" d="M207 567l-6 13l-176 440q-4 10 -5 18q0 12 16.5 17.5t20.5 9.5q0 4 -4 8q-4 6 -16 26.5t-17 26.5v4q0 8 5 11l192 96l115 -55h2h2l2 4l57 141l197 96l94 -43l92 43l193 -96q8 -4 8 -10q2 -4 9 -22.5t15.5 -38t15.5 -38t9 -22.5t4 -9t4 -5h2l115 55l193 -96q4 -2 4 -11 q0 -6 -4.5 -12t-16.5 -26.5t-16 -26.5q12 -6 24.5 -10t12.5 -21v-6l-185 -461v-379l-198 -98l-199 98v379q-78 113 -79 115t-3 2h-2l-76 -113l-6 -8v-375l-199 -98l-196 98v379zM393 123v358l178 267v2q0 2 -2 3t-2 3l-157 78q-90 -131 -92.5 -133.5t-4.5 -2.5h-2 q-6 0 -11 9.5t-7 13.5l-86 213l-154 78l170 -426l4 -11v-372zM418 123l160 80v346l-160 -80v-346zM952 123v346l-159 80v-346zM977 123l166 80v372l176 437l-150 -74q-4 -2 -6 -6l-4 -8l-86 -213q-4 -12 -14 -13q-4 2 -7 6.5t-5 6.5l-84 123l-160 -78q0 -2 -4 -4 q0 -2 2 -4.5t2 -4.5l168 -254l6 -8v-358zM930 512q-2 0 -2 -4t2 -4q4 0 4 4t-4 4zM442 508l142 72l88 133v69l-72 -34zM924 512h4l-156 233l-74 37v-69l90 -133zM924 887q4 -4 23.5 -13.5t23.5 -13.5q2 -2 5 -4t3 -4l80 -117q4 10 14 37t22.5 57.5t22.5 57t15 37.5q0 2 4 10 v2v2l-158 80h-8q-2 -2 -9.5 -21.5t-17.5 -47t-16 -44.5q-4 -8 -4 -16v-2v0zM309 748q0 -8 4 -9h2q80 117 81 119t3 2q4 4 23.5 13.5t23.5 13.5v10q-2 2 -9 21.5t-17 47t-17 44.5q-4 4 -4 6t-4 2h-4l-158 -80zM592 770l80 41v78l-80 41l-156 -78v-4zM778 770l156 78v4 l-156 78l-80 -41v-78zM410 1047q4 -2 5 -5.5t3 -5.5q2 -4 9 -22.5t15.5 -38t15.5 -37.5t9 -22.5t6 -14.5h4l109 51q0 2 6 2t11 -2t13 -6q0 2 3.5 7t3.5 8q2 4 8 19l13 32.5t13.5 35t10.5 25.5q2 2 4 10v168l-64 -32q-6 -2 -10 -15l-86 -213q-4 -4 -6 -8t-8 -4h-2 q-2 2 -6.5 6t-4.5 6l-84 125l-63 -33zM778 954q6 0 6 -2l109 -51h2q2 0 4 1t2 3l57 139l74 39l-61 31l-88 -131q-4 0 -9 -4h-2q-6 0 -10 9t-6 13l-86 213l-72 37v-168q2 -4 10.5 -25.5t21.5 -54t22 -51.5l2 -6q8 4 13 6t11 2zM641 938q0 -4 4 -6q8 -4 22.5 -12.5t16.5 -8.5 h2l45 23l-45 113q-2 -2 -6 -11q-2 -6 -7 -19t-11.5 -27.5t-11.5 -28t-7 -19.5l-2 -4v0zM217 958l156 78v4l-60 29h-192l-60 -29v-4zM1153 958l156 78v4l-60 29h-190l-62 -29v-4zM360 1167q6 -4 26 -13t24 -13q2 0 4 -3t4 -5l78 -115q4 10 15 36.5t22.5 56.5t22.5 56.5 t15 36.5q0 2 1 6t3 4v5l-157 79h-8q-2 -2 -9.5 -21.5t-18.5 -47t-17 -43.5q-2 -6 -3.5 -8t-1.5 -7v-4v0zM870 1028q0 -2 2 -4t2 -4h3h2l77 117l5 4q6 4 24.5 13t24.5 13v11q-2 2 -9.5 21.5t-18.5 47t-17 43.5q-2 8 -9 8h-4l-157 -79zM1290 1077l15 23l-29 -17zM70 1096 q4 -14 14 -15q8 0 12 2q-4 2 -12 6.5t-10 6.5h-2h-2v0zM129 1096h176l68 32v5l-156 77l-156 -77v-5zM1065 1096h176l68 32v5l-156 77l-156 -77v-5zM592 1239l80 41v78l-80 41l-156 -78v-4zM778 1239l156 78v4l-156 78l-80 -41v-78z" />
<glyph unicode="z" horiz-adv-x="1374" d="M20 580l263 131l-263 133v297l572 284l94 -45l92 45l572 -284q0 -295 -2 -300t-5 -10q-4 -4 -13 -20t-20.5 -34.5t-21.5 -36t-12 -21.5q-4 -4 -4 -8v-2q0 -4 3 -9.5t3 -7.5q2 -4 12 -19.5t21.5 -33.5t21.5 -34.5t13 -20.5q2 -2 4 -6v-295l-572 -285l-92 45l-94 -45 l-572 285v297zM578 31v157l-322 164v6v7q0 2 4 6l318 207v174l-535 266v-158q322 -164 324 -167t2 -5v-2q-2 -2 -6.5 -6t-4.5 -6l-315 -203v-174zM604 31l68 32v160l-68 -35v-157zM766 31v157l-68 35v-160zM793 31l534 266v160l-311 -154h-2q-8 0 -8 12v7l321 530v166 l-534 -266v-160q303 150 307 151.5t6 1.5h2h2l4 -4q4 -4 4 -8l-12 -22l-313 -516v-164zM592 211l65 33l-71 37q-4 2 -4 10v4q4 6 13 23.5t13 21.5l8 16l-4 4l-161 80l-158 -80zM612 297q0 -2 1 -3t3 -1l158 -80l299 492l-289 -146h-14l-158 -260v-2v0zM1047 344l262 131v4 l-62 31l-88 -41q0 -2 -6 -2q-10 0 -20 16l-5 -4zM631 379l71 115v4q0 6 -4 7t-12 5h-2l-158 -80zM481 453q2 0 7.5 -3.5t7.5 -3.5h2h2l172 86v48l-187 -119q-2 0 -4 -4v-2v-2v0zM1147 510q0 -2 3 -5t5 -7q2 0 4 -4l158 79l4 5v2l-66 104l-104 -168q0 -2 -4 -6zM1327 498v53 l-51 -27zM43 502q4 0 17.5 9l19.5 13q2 0 4 4l-4 4q-4 2 -18.5 9.5t-18.5 9.5v-49zM698 532q0 -2 5.5 -4t9.5 -4h2h2q10 6 20.5 20.5t10.5 26.5v2l-50 25v-66zM106 547h5q6 0 10 4l211 135q-10 10 -19 10h-2h-2l-248 -123v-4zM604 592l68 33v159l-68 -32v-160zM758 596h2h2 q4 0 4 4v152l-68 32v-159zM592 772l80 41v78l-359 180h-192l-60 -31v-2zM778 772l531 266v2l-60 31h-190l-361 -180v-78zM684 913h2l9 4.5t7 4.5v2v2q-2 2 -4 7t-4 7q-8 14 -22.5 41t-24.5 44t-12 19h-4l-105 -51zM657 1057q0 -2 3.5 -8.5t5.5 -8.5q8 -14 22 -40.5t24.5 -44 t12.5 -19.5h6l98 49v2q0 8 -6 13.5t-6 15.5t10 10h2l43 -20l160 79l-336 168v-174q-4 -4 -17 -10t-17 -8l-5 -4v0zM498 1006l174 88v159l-334 -168zM43 1061l53 24l-53 27v-51zM1327 1061v51l-51 -27zM129 1098h176l367 182v80l-80 39l-531 -264v-5zM1065 1098h176l68 32v5 l-531 264l-80 -39v-80z" />
<glyph unicode="&#xc6;" d="M317 436l-98 49h-12q-4 0 -4 -4v-266l-164 80v641l80 41l454 -227v-160q-70 33 -72.5 34t-3.5 1h-8q-4 0 -4 -4v-107l88 -45v-160q-70 33 -72.5 34t-3.5 1t-6.5 -1t-5.5 -5v-105l88 -47v-157l-256 127v280zM668 221v-160l-68 -32v157zM692 248l-76 41l74 39v202l-74 39 l76 39v82l70 -35v-626l-70 32v187zM879 795l444 221v-158l-90 -47v-104q0 -2 3 -4.5t5 -4.5h2h2l78 37v-157l-90 -48v-104q0 -2 3 -4t5 -4h2h2l78 37v-160l-256 -127v264q0 4 -8 4h-6h-6l-97 -47v-278l-162 -82v630zM975 375l67 33v-240l-67 35v172zM588 274l65 -32l-65 -33 l-66 33zM293 422v-172l-66 -35v240zM555 291v-4l-47 -25v53zM668 502v-160l-68 -33v160zM1305 477v-4l-50 -24v53zM588 555l65 -33l-65 -33l-66 33zM1323 549v-53l-53 26zM555 571v-4l-47 -24v53zM952 563q0 -4 4 -4h7h4l98 49v105q0 4 -6 4h-6h-6l-95 -47v-107zM731 815h4 q0 -8 -4 -8q-2 -4 -9 -15.5t-16.5 -25.5t-17.5 -26.5t-12 -18.5q-2 -2 -3 -4t-3 -4v-90l-70 -33v160zM1028 616l-53 -26v53zM305 604h2h2q2 2 6 4v109l-96 49h-6q-8 0 -8 -4v-107zM246 664l47 24v-51l-47 25v2zM993 664l49 24v-51l-49 25v2zM780 834l68 -35v-4l-4 -7 q-6 -10 -17.5 -27.5t-22.5 -33.5t-28 -41l-6 -6l-70 35zM279 709l-52 -25v51zM1305 758v-4l-50 -25v53zM307 1069l436 -217v-4l-155 -78l-441 221zM1323 829v-53l-53 27zM1149 1116l156 -78v-4l-437 -217l-159 80zM598 1042q0 4 -4 5h-6h-6l-88 -43l-158 79l332 168v-333 l-70 34v90zM1028 1083l-334 -165v333zM182 1038v-4l-143 -69v145zM573 1016v-51l-51 26zM57 1133l437 217l159 -78l-440 -221l-156 77v5zM1182 1133l51 26h8q2 -2 10.5 -15.5t21.5 -32.5t19 -32q2 0 4 -6h-4l-110 55v5zM618 1319l156 78l440 -219l-159 -80l-437 219v2z" />
<glyph unicode="&#xe6;" horiz-adv-x="1374" d="M299 223l-82 -39l-197 99v858l469 233h19l84 -39l186 90l477 -237l95 -141v-764l-291 -146l-82 39v-80l-199 -98l-92 45l-94 -45l-293 145v80zM578 31v157l-89 48v104q0 4 5 4h6h8l70 -33v158l-89 47v107q0 4 5 4h6q2 0 8 -2l70 -33v160l-455 227l-80 -41v-641l164 -80 v266q0 4 4 4h6h6l99 -51v-278zM604 31l68 32v160l-68 -35v-157zM766 31v626l-70 35v-82l-75 -39l73 -39v-202l-73 -39l75 -41v-187zM793 31l161 80v280l97 47h6h8t6 -4v-264l256 127v160l-78 -37h-2h-2q-2 2 -8 6v106l90 48v157l-78 -37h-2h-2q-2 2 -5 4.5t-3 4.5v104l90 47 v158l-444 -221l-90 -135v-631zM1047 170v240l-68 -33v-172zM592 211l65 33l-65 32l-66 -32zM229 217l68 35v172l-68 33v-240zM512 264l47 25v4l-47 24v-53zM604 311l68 33v160l-68 -35v-158zM1260 451l49 24v4l-49 25v-53zM592 492l65 32l-65 33l-66 -33zM1327 498v53 l-51 -27zM512 545l47 24v4l-47 25v-53zM1051 719h6h6q6 0 6 -4v-105l-98 -49h-4h-6t-5 4v107zM604 592l70 33v90q2 2 3 4t3 4l13 19.5t18.5 28.5t18.5 28.5l13 19.5l-139 -67v-160zM979 592l53 26l-53 27v-53zM207 764q0 4 4 4h6h6l96 -49q0 -109 -2 -110t-4 -3h-2h-2 l-102 51v107zM297 639v51l-47 -24v-2zM1047 639v51l-50 -24v-2zM774 682q6 6 14.5 18.5t19.5 28.5t22.5 33.5t17.5 28.5q4 0 4 8v2l-68 35l-79 -119zM229 686l54 25l-54 26v-51zM1260 733l49 23v4l-49 24v-51zM592 772l156 78v4l-437 217l-159 -78zM1327 778v53l-51 -26z M872 819l437 219v2l-156 78l-440 -219zM672 920v333l-334 -168l160 -79l88 43h10q6 0 6 -5v-90zM698 920l334 165l-334 168v-333zM43 967l141 71v2l-141 72v-145zM578 967v51l-52 -25zM217 1053l440 221l-159 80l-437 -219v-5zM1305 1075q-4 0 -5 -4q0 -4 5 -4q4 0 4 4t-4 4 zM1298 1075h2l-2 6l-53 80h-8l-51 -26v-5zM1059 1100l160 80l-441 219l-155 -76v-4z" />
<glyph unicode="&#x2000;" horiz-adv-x="712" />
<glyph unicode="&#x2001;" horiz-adv-x="1425" />
<glyph unicode="&#x2002;" horiz-adv-x="712" />
<glyph unicode="&#x2003;" horiz-adv-x="1425" />
<glyph unicode="&#x2004;" horiz-adv-x="475" />
<glyph unicode="&#x2005;" horiz-adv-x="356" />
<glyph unicode="&#x2006;" horiz-adv-x="237" />
<glyph unicode="&#x2007;" horiz-adv-x="237" />
<glyph unicode="&#x2008;" horiz-adv-x="178" />
<glyph unicode="&#x2009;" horiz-adv-x="285" />
<glyph unicode="&#x200a;" horiz-adv-x="79" />
<glyph unicode="&#x202f;" horiz-adv-x="285" />
<glyph unicode="&#x205f;" horiz-adv-x="356" />
<glyph unicode="&#xe000;" horiz-adv-x="1423" d="M0 1423h1423v-1423h-1423v1423z" />
</font>
</defs>
</svg>
